<svg xmlns="http://www.w3.org/2000/svg" width="31.344" height="20.154" viewBox="0 0 31.344 20.154">
  <g id="Group_62" data-name="Group 62" transform="translate(-201.534 -798.486)">
    <path id="Path_150" data-name="Path 150" d="M-10.163.673,18.621.519,5.4,12.738l-3.545-.275Z" transform="translate(213.028 798.733)" fill="#69abbe" opacity="0.397"/>
    <g id="Group_55" data-name="Group 55" transform="translate(201.534 798.486)">
      <path id="Path_151" data-name="Path 151" d="M9.9,975.362A1.887,1.887,0,0,0,8,977.228v16.422a1.887,1.887,0,0,0,1.9,1.865H37.444a1.887,1.887,0,0,0,1.9-1.865V977.228a1.887,1.887,0,0,0-1.9-1.865Zm0,.746H37.444a1.2,1.2,0,0,1,.479.1l-13.351,11.93a1.434,1.434,0,0,1-1.8,0L9.422,976.214A1.2,1.2,0,0,1,9.9,976.1Zm-1.015.607,10.133,9.06-10.133,8.4a1.1,1.1,0,0,1-.14-.52V977.228A1.089,1.089,0,0,1,8.886,976.715Zm29.572,0a1.089,1.089,0,0,1,.14.513v16.422a1.1,1.1,0,0,1-.14.525l-10.133-8.4Zm-18.875,9.562,2.694,2.414a2.136,2.136,0,0,0,2.8,0l2.694-2.414,10.145,8.4a1.209,1.209,0,0,1-.466.093H9.9a1.209,1.209,0,0,1-.466-.093Z" transform="translate(-8 -975.362)" fill="#69abbe"/>
    </g>
  </g>
</svg>
