<svg xmlns="http://www.w3.org/2000/svg" width="35.468" height="43.195" viewBox="0 0 35.468 43.195">
  <g id="Grupo_2660" data-name="Grupo 2660" transform="translate(-554.395 -548.477)">
    <g id="noun_Doctor_167331" transform="translate(554.395 548.477)">
      <path id="Trazado_750" data-name="Trazado 750" d="M42.591,44.266H40.42V42.8c3.1-2.033,5.813-5.372,5.813-8.411v-.763h.32c1.915,0,2.807-1.663,2.807-5.234a2.109,2.109,0,0,0-2.108-2.108H46.234v-7.68c0-3.769-4.878-6.721-11.1-6.721s-11.105,2.952-11.105,6.721v7.68H23A2.11,2.11,0,0,0,20.9,28.4c0,3.571.893,5.234,2.807,5.234h.32v.764c0,3.038,2.711,6.378,5.813,8.41v1.463H27.668A10.284,10.284,0,0,0,17.4,54.538a.543.543,0,0,0,.544.544h34.38a.543.543,0,0,0,.544-.544A10.285,10.285,0,0,0,42.591,44.266Zm3.642-15.218h.213c.149,0,.2.011.2.223,0,.125-.016.323-.016.323a.544.544,0,0,0,.543.586h0a.544.544,0,0,0,.542-.5s.019-.236.019-.407a1.23,1.23,0,0,0-1.288-1.311h-.213v-.585h1.02a1.021,1.021,0,0,1,1.02,1.02c0,4.146-1.249,4.146-1.72,4.146h-.32V29.048ZM24.023,27.96h-.212a1.231,1.231,0,0,0-1.29,1.311c0,.171.02.407.02.407a.544.544,0,0,0,.542.5h0a.554.554,0,0,0,.543-.586s-.017-.2-.017-.323c0-.215.058-.223.2-.223h.212v3.493H23.7c-.47,0-1.719,0-1.719-4.146A1.021,1.021,0,0,1,23,27.375h1.019v.585Zm5.814,26.034h-5.79a6.01,6.01,0,0,1,1-2.827.544.544,0,1,0-.9-.608,7.1,7.1,0,0,0-1.19,3.434H18.5a9.2,9.2,0,0,1,9.168-8.641h2.17v8.641h0ZM25.111,18.608c0-3.106,4.494-5.633,10.018-5.633S45.145,15.5,45.145,18.608v5.011c-1.77-2.259-5.539-3.79-10.017-3.79s-8.247,1.531-10.018,3.79V18.608Zm0,14.482s0,0,0-.005V26.831s0,0,0-.005V26.55c0-3.106,4.494-5.633,10.018-5.633s10.017,2.527,10.017,5.633V33.6l-8.113-3.1V27.042a.544.544,0,1,0-1.088,0V30.08l-.622-.238a.545.545,0,0,0-.389,0L25.11,33.6V33.09Zm.015,1.669,10-3.826,10,3.828c-.341,4.112-6.249,8.862-10,8.862S25.467,38.871,25.126,34.759ZM39.333,53.995H30.924V48.087a5.272,5.272,0,0,0,8.408,0v5.908Zm0-9.108a4.2,4.2,0,1,1-8.408,0V43.453a9.231,9.231,0,0,0,4.2,1.257,9.22,9.22,0,0,0,4.2-1.257Zm7.974,9.108a7.1,7.1,0,0,0-1.192-3.434.544.544,0,0,0-.9.608,6,6,0,0,1,1,2.827H40.421V45.354h2.17a9.2,9.2,0,0,1,9.167,8.641ZM29.543,26.831a1.234,1.234,0,1,0,1.234,1.234A1.234,1.234,0,0,0,29.543,26.831Zm11.17,0a1.234,1.234,0,1,0,1.234,1.234A1.234,1.234,0,0,0,40.712,26.831Zm-2.5-.87c.786-.523,2.483-1.177,5.034.327a.544.544,0,1,0,.552-.937c-3.174-1.873-5.387-.831-6.191-.3a.544.544,0,0,0,.6.906Zm-11.747-.61a.544.544,0,0,0,.276,1.013.535.535,0,0,0,.276-.076c2.55-1.5,4.249-.85,5.034-.327a.544.544,0,1,0,.6-.905C31.848,24.521,29.635,23.477,26.461,25.352Z" transform="translate(-17.395 -11.887)" fill="#69abbe"/>
    </g>
    <path id="Trazado_751" data-name="Trazado 751" d="M660.733,589.024l10.641-3.91,10.3,3.91v2.208l-4.045,5.009-3.267,1.771-2.983,1.037-4.1-1.037-4.421-3.96-1.687-2.819Z" transform="translate(-99.083 -18.083)" fill="rgba(105,171,190,0.4)"/>
  </g>
</svg>
