<svg xmlns="http://www.w3.org/2000/svg" width="50.091" height="34.678" viewBox="0 0 50.091 34.678">
  <g id="Grupo_2661" data-name="Grupo 2661" transform="translate(-160 -553.992)">
    <path id="Rectangle_92" data-name="Rectangle 92" d="M3.093,0H30.2C31.9,0,13.205,34.678,11.5,34.678h-8.4A3.093,3.093,0,0,1,0,31.586V3.093A3.093,3.093,0,0,1,3.093,0Z" transform="translate(160 553.992)" fill="#69abbe" opacity="0.403"/>
    <g id="Group_147" data-name="Group 147" transform="translate(160 553.992)">
      <g id="Rectangle_92-2" data-name="Rectangle 92" fill="none" stroke="#69abbe" stroke-width="0.9">
        <rect width="50.091" height="34.678" rx="2" stroke="none"/>
        <rect x="0.45" y="0.45" width="49.191" height="33.778" rx="1.55" fill="none"/>
      </g>
      <g id="Group_146" data-name="Group 146" transform="translate(3.866 3.866)">
        <g id="Ellipse_17" data-name="Ellipse 17" transform="translate(6.923 0.758)" fill="#fff" stroke="#69abbe" stroke-width="1.3">
          <ellipse cx="4.624" cy="4.624" rx="4.624" ry="4.624" stroke="none"/>
          <ellipse cx="4.624" cy="4.624" rx="3.974" ry="3.974" fill="none"/>
        </g>
        <path id="Path_229" data-name="Path 229" d="M5.379,0A5.379,5.379,0,1,1,0,5.379,5.379,5.379,0,0,1,5.379,0Z" transform="translate(0)" fill="#fff" stroke="#69abbe" stroke-width="1"/>
      </g>
      <g id="Group_145" data-name="Group 145" transform="translate(5.779 18.881)">
        <line id="Line_10" data-name="Line 10" x2="6.295" fill="none" stroke="#69abbe" stroke-width="2"/>
        <line id="Line_11" data-name="Line 11" x2="6.295" transform="translate(10.492)" fill="none" stroke="#69abbe" stroke-width="2"/>
        <line id="Line_12" data-name="Line 12" x2="6.295" transform="translate(21.681)" fill="none" stroke="#69abbe" stroke-width="2"/>
        <line id="Line_13" data-name="Line 13" x2="6.295" transform="translate(32.872)" fill="none" stroke="#69abbe" stroke-width="2"/>
      </g>
      <rect id="Rectangle_93" data-name="Rectangle 93" width="10.018" height="6.165" rx="1" transform="translate(33.908 23.12)" fill="none" stroke="#69abbe" stroke-width="1"/>
      <line id="Line_14" data-name="Line 14" x2="9.248" transform="translate(5.009 25.045)" fill="none" stroke="#69abbe" stroke-width="1.3"/>
      <line id="Line_15" data-name="Line 15" x2="4.624" transform="translate(18.881 25.045)" fill="none" stroke="#69abbe" stroke-width="1.3"/>
      <line id="Line_16" data-name="Line 16" x2="16.953" transform="translate(5.009 28.129)" fill="none" stroke="#69abbe" stroke-width="1.3"/>
    </g>
  </g>
</svg>
