<svg xmlns="http://www.w3.org/2000/svg" width="174.658" height="17.777" viewBox="0 0 174.658 17.777">
  <g id="Grupo_2538" data-name="Grupo 2538" transform="translate(-982.342 -12.908)">
    <g id="Grupo_2536" data-name="Grupo 2536" transform="translate(450)">
      <path id="Trazado_705" data-name="Trazado 705" d="M209.141,403.339a2.615,2.615,0,0,1-.532-1.743,13.4,13.4,0,0,1,1.063-4.444,27.447,27.447,0,0,1,2.414-4.941c.872-1.447,1.612-2.161,2.126-2.161a.566.566,0,0,1,.523.366,2.047,2.047,0,0,1,.2.872,5.988,5.988,0,0,1-.584,2.222,12.267,12.267,0,0,1-1.516,2.614,6.877,6.877,0,0,1-1.987,1.856,7.179,7.179,0,0,0-.523,1.508,7.974,7.974,0,0,0-.27,2.022,2.965,2.965,0,0,0,.218,1.246.741.741,0,0,0,.7.462,1.6,1.6,0,0,0,.985-.41,3.258,3.258,0,0,0,.871-1.037,2.466,2.466,0,0,1-.985-.976,2.8,2.8,0,0,1-.34-1.351,2.057,2.057,0,0,1,.453-1.386,1.429,1.429,0,0,1,1.15-.54,1.151,1.151,0,0,1,.95.445,2.118,2.118,0,0,1,.349,1.316,5.367,5.367,0,0,1-.523,2.231h.314a1.743,1.743,0,0,0,1.342-.566,5.8,5.8,0,0,0,.932-1.394l.262.366a4.174,4.174,0,0,1-1.115,1.621,2.518,2.518,0,0,1-1.647.523h-.375a4.794,4.794,0,0,1-1.281,1.386,2.805,2.805,0,0,1-1.656.514A1.883,1.883,0,0,1,209.141,403.339Zm3.433-8.192a15.145,15.145,0,0,0,1.1-2.03,4.61,4.61,0,0,0,.436-1.4,3.024,3.024,0,0,0-.793.871,16.288,16.288,0,0,0-1.159,1.952,15.774,15.774,0,0,0-.976,2.309A7.931,7.931,0,0,0,212.574,395.148Zm.871,4.531a2.282,2.282,0,0,0-.139-.915c-.1-.218-.218-.322-.366-.322s-.288.1-.4.322a1.57,1.57,0,0,0-.166.758,2.473,2.473,0,0,0,.183.871,1.6,1.6,0,0,0,.575.75,3.7,3.7,0,0,0,.3-1.464Z" transform="translate(323.738 -376.976)" fill="#717171"/>
      <path id="Trazado_706" data-name="Trazado 706" d="M219.077,408.38a1.072,1.072,0,0,1-.357-.871,1.831,1.831,0,0,1,.523-1.255,5.127,5.127,0,0,1,1.2-.95,18.251,18.251,0,0,1,1.786-.871c.2-.514.479-1.429.871-2.763a7.722,7.722,0,0,1-1.246,1.421,1.968,1.968,0,0,1-1.29.505,1.663,1.663,0,0,1-1.046-.348,1.325,1.325,0,0,1-.453-1.116,5.314,5.314,0,0,1,.279-1.525,8.561,8.561,0,0,1,.671-1.63c.253-.462.479-.7.671-.7a1.237,1.237,0,0,1,.523.192.87.87,0,0,1,.427.392,6.407,6.407,0,0,0-.732,1.542,5.376,5.376,0,0,0-.4,1.691c0,.436.174.654.514.654a1.743,1.743,0,0,0,1.15-.619,8.472,8.472,0,0,0,1.176-1.516,5.1,5.1,0,0,0,.1-.584,1.743,1.743,0,0,1,.322-.8.785.785,0,0,1,.7-.349l.566.07a11.491,11.491,0,0,1-.41,1.926c-.27.993-.575,1.961-.932,2.9a5.305,5.305,0,0,0,1.63-1.081,4.889,4.889,0,0,0,1.211-1.908l.3.253a4.514,4.514,0,0,1-1.272,2.048,8.159,8.159,0,0,1-2.091,1.359,14.814,14.814,0,0,1-1.682,3.094,2.37,2.37,0,0,1-1.839,1.141A1.289,1.289,0,0,1,219.077,408.38Zm1.638-1.115a9.421,9.421,0,0,0,1.176-2.074,8.909,8.909,0,0,0-1.743,1.124,1.743,1.743,0,0,0-.732,1.2.756.756,0,0,0,.078.348.279.279,0,0,0,.261.148c.235,0,.558-.253.95-.749Z" transform="translate(322.438 -378.034)" fill="#717171"/>
      <path id="Trazado_707" data-name="Trazado 707" d="M238.851,403.571a3.65,3.65,0,0,1-1.272-1.6,5.462,5.462,0,0,1-.418-2.144,10.458,10.458,0,0,1,1.124-4.584,11.511,11.511,0,0,1,2.858-3.791,5.429,5.429,0,0,1,3.486-1.49,2.083,2.083,0,0,1,1.325.384,1.429,1.429,0,0,1,.505,1.22,4.923,4.923,0,0,1-.331,1.621,5.228,5.228,0,0,1-.828,1.568,1.36,1.36,0,0,1-1.011.645.872.872,0,0,1-.723-.549,11.942,11.942,0,0,0,1.3-1.743,3.486,3.486,0,0,0,.627-1.656c0-.462-.27-.689-.793-.689a3.782,3.782,0,0,0-2.614,1.5,12.7,12.7,0,0,0-2.3,3.686,10.51,10.51,0,0,0-.932,4.07,4.287,4.287,0,0,0,.636,2.379,2.152,2.152,0,0,0,1.926.976,3.862,3.862,0,0,0,1.865-.523,6.86,6.86,0,0,0,1.743-1.386,7.58,7.58,0,0,0,1.272-1.874l.453.3a9.831,9.831,0,0,1-2.492,3.12,5.054,5.054,0,0,1-3.268,1.211A3.633,3.633,0,0,1,238.851,403.571Z" transform="translate(320.066 -376.964)" fill="#717171"/>
      <path id="Trazado_708" data-name="Trazado 708" d="M249.079,404.046a1.56,1.56,0,0,1-.41-1.15,4.558,4.558,0,0,1,.749-2.292,7.3,7.3,0,0,1,1.908-2.152,3.827,3.827,0,0,1,2.327-.871,2.116,2.116,0,0,1,1.3.4,1.229,1.229,0,0,1,.514,1.02c0,.54-.331.819-1,.871.427.131.636.3.636.532a1.02,1.02,0,0,1-.122.366c-.087.165-.183.34-.288.514a8.769,8.769,0,0,0-.436.8,1.584,1.584,0,0,0-.157.645.775.775,0,0,0,.131.453.454.454,0,0,0,.392.183,2.153,2.153,0,0,0,1.263-.688,7.715,7.715,0,0,0,1.49-2.065l.331.331a6.97,6.97,0,0,1-1.621,2.362,2.91,2.91,0,0,1-1.952.871,1.342,1.342,0,0,1-1.089-.462,1.656,1.656,0,0,1-.375-1.072,9.95,9.95,0,0,1-1.36,1.394,1.9,1.9,0,0,1-1.194.445A1.428,1.428,0,0,1,249.079,404.046Zm2.841-1.386a27.059,27.059,0,0,0,1.856-2.318l.357-.479a.148.148,0,0,1,.139-.087h.07a2.162,2.162,0,0,0,.087-.654c0-.61-.244-.924-.741-.924a2.4,2.4,0,0,0-1.621.872,7.208,7.208,0,0,0-1.42,1.978,4.5,4.5,0,0,0-.566,1.961.688.688,0,0,0,.1.427.348.348,0,0,0,.305.131,2.213,2.213,0,0,0,1.438-.9Z" transform="translate(318.587 -377.944)" fill="#717171"/>
      <path id="Trazado_709" data-name="Trazado 709" d="M262.391,403.57a1.168,1.168,0,0,1-.41-.933,2.443,2.443,0,0,1,.139-.732,9.431,9.431,0,0,1,.392-.959,7.773,7.773,0,0,0,.357-.871,1.981,1.981,0,0,0,.122-.61c0-.453-.3-.828-.872-1.133-.235.584-.514,1.185-.819,1.786a13.928,13.928,0,0,1-.872,1.516l-.27-.514a20.366,20.366,0,0,0,1.429-3.2.636.636,0,0,1-.174-.471,1.542,1.542,0,0,1,.279-.872c.192-.27.375-.4.549-.4a.34.34,0,0,1,.287.209.762.762,0,0,1,.113.357,1.36,1.36,0,0,1-.079.3l-.113.349a.427.427,0,0,0,.139.235,3.43,3.43,0,0,0,.462.322,4.967,4.967,0,0,1,.958.793,1.446,1.446,0,0,1,.34,1.011,2.38,2.38,0,0,1-.131.776,8.534,8.534,0,0,1-.392.941,2.984,2.984,0,0,0-.392,1.107c0,.27.148.41.445.41a2.075,2.075,0,0,0,1.15-.427,5.809,5.809,0,0,0,1.15-1.028,5.124,5.124,0,0,0,.767-1.142l.418.322a6.1,6.1,0,0,1-2.405,2.7,3.039,3.039,0,0,1-1.542.453A1.576,1.576,0,0,1,262.391,403.57Z" transform="translate(317.109 -377.764)" fill="#717171"/>
      <path id="Trazado_710" data-name="Trazado 710" d="M269.947,402.669a2.387,2.387,0,0,1-.357-1.359,12.472,12.472,0,0,1,1.107-4.357,29.928,29.928,0,0,1,2.475-4.871c.915-1.438,1.595-2.161,2.022-2.161.2,0,.375.157.514.471a2.485,2.485,0,0,1,.227.95,6.97,6.97,0,0,1-.645,2.37,17.286,17.286,0,0,1-1.743,3.172,11.652,11.652,0,0,1-2.353,2.614,11.26,11.26,0,0,0-.192,1.656,1.743,1.743,0,0,0,.2.924.636.636,0,0,0,.558.3,1.866,1.866,0,0,0,1.316-.819,8.782,8.782,0,0,0,1.229-1.978l.427.227a8.583,8.583,0,0,1-1.743,2.5,2.824,2.824,0,0,1-1.943.871A1.263,1.263,0,0,1,269.947,402.669Zm3.338-6.675a19.7,19.7,0,0,0,1.342-2.615,5.619,5.619,0,0,0,.5-1.839c-.148,0-.462.357-.924,1.081a24.487,24.487,0,0,0-1.464,2.675,23.829,23.829,0,0,0-1.237,3.094A14.663,14.663,0,0,0,273.285,395.994Z" transform="translate(315.897 -376.959)" fill="#717171"/>
      <path id="Trazado_711" data-name="Trazado 711" d="M276.612,403.7a2.057,2.057,0,0,1-.322-1.185,4.286,4.286,0,0,1,.305-1.534,4.045,4.045,0,0,1,.8-1.325,1.386,1.386,0,0,1,1-.532,1.437,1.437,0,0,1,.549.14,2.449,2.449,0,0,1,.575-1.342,1.63,1.63,0,0,1,1.307-.531,1.29,1.29,0,0,1,1.046.4,1.569,1.569,0,0,1,.331,1.028,3.708,3.708,0,0,1-.322,1.412,10.042,10.042,0,0,1-.871,1.595,1.091,1.091,0,0,0,.488.1,2.179,2.179,0,0,0,1.926-1.325l.314.227a2.919,2.919,0,0,1-.993,1.29,2.222,2.222,0,0,1-1.3.444,2.847,2.847,0,0,1-.871-.157,6.305,6.305,0,0,1-1.429,1.272,2.85,2.85,0,0,1-1.516.488A1.185,1.185,0,0,1,276.612,403.7Zm2.457-.776a5.951,5.951,0,0,0,.871-.872,3.485,3.485,0,0,1-1.054-2.614,1.631,1.631,0,0,0-.514.654,6.749,6.749,0,0,0-.505,1.22,4.036,4.036,0,0,0-.218,1.168q0,.81.6.81A1.376,1.376,0,0,0,279.07,402.923Zm2.109-2.832a3.387,3.387,0,0,0,.287-1.272c0-.514-.165-.776-.488-.776a.714.714,0,0,0-.479.235,1.745,1.745,0,0,0-.41.6,2.248,2.248,0,0,0-.157.871,3.908,3.908,0,0,0,.139.924,2.082,2.082,0,0,0,.375.8A7.32,7.32,0,0,0,281.179,400.091Z" transform="translate(315.036 -377.919)" fill="#717171"/>
      <path id="Trazado_712" data-name="Trazado 712" d="M286.262,403.683a2.562,2.562,0,0,1-.593-1.743,1.438,1.438,0,0,1,.244-.959,1.744,1.744,0,0,1,.558-.418,2,2,0,0,0,.357-.139A8.625,8.625,0,0,0,288.571,398v-.192a1.683,1.683,0,0,1,.227-.967.654.654,0,0,1,.566-.322.375.375,0,0,1,.427.357,1.448,1.448,0,0,1-.044.261,1.744,1.744,0,0,0-.044.375,2.668,2.668,0,0,0,.1.706c.07.244.183.584.331,1s.34.967.436,1.342a4.626,4.626,0,0,1,.148,1.15,4.869,4.869,0,0,1-.07.723,3.486,3.486,0,0,0,2.083-2l.209.157a4.237,4.237,0,0,1-.976,1.63,2.615,2.615,0,0,1-1.473.741,2.074,2.074,0,0,1-.915,1.063,2.9,2.9,0,0,1-1.464.366A2.222,2.222,0,0,1,286.262,403.683Zm2.362-.244a1.133,1.133,0,0,0,.462-.505,3.537,3.537,0,0,1-1.264-.54,3.93,3.93,0,0,1-.941-.872c-.157,0-.244.192-.244.471a1.857,1.857,0,0,0,.357,1.124,1.133,1.133,0,0,0,.967.488A1.29,1.29,0,0,0,288.623,403.439Zm.654-1.586a6.832,6.832,0,0,0-.122-1.115q-.1-.54-.314-1.412l-.157-.636a12.2,12.2,0,0,1-1.534,2.214,3.226,3.226,0,0,0,.871.924,3.191,3.191,0,0,0,1.229.575A1.961,1.961,0,0,0,289.277,401.853Z" transform="translate(313.831 -377.807)" fill="#717171"/>
      <path id="Trazado_713" data-name="Trazado 713" d="M302.466,403.054a5.414,5.414,0,0,1,.706-2.074,35.418,35.418,0,0,1,1.882-3.224c-.7-.044-1.569-.07-2.614-.07a1.926,1.926,0,0,1,2.048-1.15,12.21,12.21,0,0,1,1.3.113,54.094,54.094,0,0,1,3.686-4.828q1.743-1.961,2.274-1.961a2.074,2.074,0,0,1,1.194.688,6.532,6.532,0,0,0-1.028,2.2,38.638,38.638,0,0,0-1.2,4.235,18.176,18.176,0,0,0-.514,3.721,2.833,2.833,0,0,0,.148,1.046.488.488,0,0,0,.471.349,1.638,1.638,0,0,0,1.037-.645,9.271,9.271,0,0,0,1.307-1.987l.314.331a6.842,6.842,0,0,1-1.447,2.414,2.527,2.527,0,0,1-1.83.871,1.254,1.254,0,0,1-1.185-.706,4.5,4.5,0,0,1-.366-2.03,13.764,13.764,0,0,1,.227-2.187c-.6-.1-1.438-.209-2.518-.34a69.338,69.338,0,0,0-3.1,6.292A1.255,1.255,0,0,1,302.466,403.054Zm7.433-8.767c.349-1.063.688-2,1.046-2.841a10.457,10.457,0,0,0-1.821,2.048,40.1,40.1,0,0,0-2.179,3.39l1.316.279c.357.1.627.166.81.2C309.29,396.37,309.56,395.35,309.9,394.287Z" transform="translate(311.674 -376.952)" fill="#717171"/>
      <path id="Trazado_714" data-name="Trazado 714" d="M317.972,404.292a.662.662,0,0,1-.192-.471.872.872,0,0,1,.375-.619,1.186,1.186,0,0,1,.732-.322.627.627,0,0,1,.41.139.488.488,0,0,1,.174.41,1.069,1.069,0,0,1-.113.418,1.488,1.488,0,0,1-.322.453.7.7,0,0,1-.479.192A.794.794,0,0,1,317.972,404.292Z" transform="translate(309.702 -378.626)" fill="#717171"/>
      <path id="Trazado_715" data-name="Trazado 715" d="M333.165,403.744a3.311,3.311,0,0,1-1.333-1.2,3.1,3.1,0,0,1-.462-1.673,3.87,3.87,0,0,1,.584-2.022,5.35,5.35,0,0,1,1.612-1.673,5.5,5.5,0,0,1,2.292-.871,3.862,3.862,0,0,1-.941-1.237,3.258,3.258,0,0,1-.322-1.429,3.6,3.6,0,0,1,.48-1.8,3.747,3.747,0,0,1,3.337-1.891,2.37,2.37,0,0,1,1.656.514,1.917,1.917,0,0,1,.584,1.516,3.7,3.7,0,0,1-.235,1.29,3.086,3.086,0,0,1-.6,1.028,1.021,1.021,0,0,1-.68.4c-.288,0-.575-.244-.871-.723,1.037-.871,1.551-1.638,1.551-2.37a.967.967,0,0,0-.34-.793,1.412,1.412,0,0,0-.924-.288,1.944,1.944,0,0,0-1.307.471,2.894,2.894,0,0,0-.828,1.22,4.36,4.36,0,0,0-.279,1.577,4.076,4.076,0,0,0,.3,1.586,3.128,3.128,0,0,0,.994,1.281,5.039,5.039,0,0,0-2.179.871A4.862,4.862,0,0,0,333.8,399.1a3.623,3.623,0,0,0-.523,1.813,3.046,3.046,0,0,0,.235,1.168,2.242,2.242,0,0,0,.75.941,2.134,2.134,0,0,0,1.307.383,3.851,3.851,0,0,0,1.873-.531,6.975,6.975,0,0,0,1.743-1.412,7.747,7.747,0,0,0,1.272-1.891l.471.3a9.582,9.582,0,0,1-2.536,3.146A5.15,5.15,0,0,1,335.1,404.2a4.211,4.211,0,0,1-1.934-.453Z" transform="translate(307.954 -376.962)" fill="#717171"/>
      <path id="Trazado_716" data-name="Trazado 716" d="M348.178,403.79a1.133,1.133,0,0,1-.375-.871,2.185,2.185,0,0,1,.078-.532c.052-.192.113-.392.174-.592a5.107,5.107,0,0,0,.244-1.2.715.715,0,0,0-.174-.523.628.628,0,0,0-.445-.166,2.615,2.615,0,0,0-1.882,1.168,27.443,27.443,0,0,0-2.048,2.98,1.334,1.334,0,0,1-1.142-.514l.157-.436a11.376,11.376,0,0,0,1.037-3.747,1.6,1.6,0,0,1,.41-.3,1.117,1.117,0,0,1,.479-.1.671.671,0,0,1,.462.148.471.471,0,0,1,.157.383,6.674,6.674,0,0,1-.3,1.569,8.713,8.713,0,0,1,1.647-1.743,2.755,2.755,0,0,1,1.682-.671,1.29,1.29,0,0,1,1.089.488,1.744,1.744,0,0,1,.392,1.15,2.923,2.923,0,0,1-.1.741,6.762,6.762,0,0,1-.3.8,3.257,3.257,0,0,0-.3,1.107.558.558,0,0,0,.122.392.418.418,0,0,0,.3.122,1.82,1.82,0,0,0,1.263-.8,9.654,9.654,0,0,0,1.229-1.9l.3.244a8.4,8.4,0,0,1-1.377,2.327,2.3,2.3,0,0,1-1.743.872A1.508,1.508,0,0,1,348.178,403.79Z" transform="translate(306.509 -378.08)" fill="#717171"/>
      <path id="Trazado_717" data-name="Trazado 717" d="M357.162,403.57a1.168,1.168,0,0,1-.409-.933,2.2,2.2,0,0,1,.139-.732,9.381,9.381,0,0,1,.392-.959,8.447,8.447,0,0,0,.349-.871,1.786,1.786,0,0,0,.131-.61c0-.453-.3-.828-.871-1.133-.235.584-.514,1.185-.819,1.786a13.935,13.935,0,0,1-.871,1.516l-.261-.514a20.371,20.371,0,0,0,1.429-3.2.6.6,0,0,1-.174-.471,1.481,1.481,0,0,1,.279-.872c.192-.27.375-.4.549-.4a.34.34,0,0,1,.288.209.759.759,0,0,1,.113.357,1.357,1.357,0,0,1-.078.305l-.113.349a.427.427,0,0,0,.139.235,3.43,3.43,0,0,0,.462.322,4.983,4.983,0,0,1,.958.793,1.446,1.446,0,0,1,.34,1.011,2.377,2.377,0,0,1-.131.776,8.563,8.563,0,0,1-.392.941,2.979,2.979,0,0,0-.392,1.107c0,.27.148.41.444.41a2.075,2.075,0,0,0,1.15-.427,5.809,5.809,0,0,0,1.15-1.028,5.461,5.461,0,0,0,.767-1.142l.418.322a6.34,6.34,0,0,1-.985,1.516,6.1,6.1,0,0,1-1.42,1.185,3.039,3.039,0,0,1-1.542.453A1.578,1.578,0,0,1,357.162,403.57Z" transform="translate(304.924 -377.764)" fill="#717171"/>
      <path id="Trazado_718" data-name="Trazado 718" d="M364.57,403.267a1.611,1.611,0,0,1-.41-1.133,6.452,6.452,0,0,1,.4-1.917,8.558,8.558,0,0,1,1-2.126c.4-.61.81-.915,1.22-.915a.567.567,0,0,1,.383.131.48.48,0,0,1,.148.375,1.018,1.018,0,0,1-.139.436c-.1.183-.244.444-.462.784a17.169,17.169,0,0,0-.871,1.656,3.218,3.218,0,0,0-.323,1.351,1.056,1.056,0,0,0,.192.741.82.82,0,0,0,.6.192q1.386,0,2.763-2.7l.27.279a6.555,6.555,0,0,1-1.569,2.422,3.007,3.007,0,0,1-2.048.871,1.482,1.482,0,0,1-1.159-.444Zm2.614-7.7a.567.567,0,0,1-.253-.514.872.872,0,0,1,.444-.715,1.69,1.69,0,0,1,.959-.3q.758,0,.758.654a.951.951,0,0,1-.4.715,1.351,1.351,0,0,1-.872.34,1.027,1.027,0,0,1-.654-.174Z" transform="translate(303.739 -377.488)" fill="#717171"/>
      <path id="Trazado_719" data-name="Trazado 719" d="M374.289,407.15a15.239,15.239,0,0,1,.192-2.266,21.223,21.223,0,0,1,.575-2.614,10.271,10.271,0,0,1-1.412,1.481,1.987,1.987,0,0,1-1.22.514,1.482,1.482,0,0,1-.993-.418,1.525,1.525,0,0,1-.462-1.211,4.531,4.531,0,0,1,.758-2.3,7.338,7.338,0,0,1,1.97-2.144,4.1,4.1,0,0,1,2.4-.872,2.075,2.075,0,0,1,1.124.288.81.81,0,0,1,.462.706.924.924,0,0,1-.1.383.637.637,0,0,1-.279.288.348.348,0,0,1,.279.174.566.566,0,0,1,.078.279,1.207,1.207,0,0,1-.1.462,6.016,6.016,0,0,1-.357.671,9.349,9.349,0,0,0-1.072,2.545,3.085,3.085,0,0,0,1.508-.706A5.745,5.745,0,0,0,379,400.666l.314.288a5.529,5.529,0,0,1-1.438,1.891,3.863,3.863,0,0,1-1.743.828,6.231,6.231,0,0,1-.087,4.052c-.261.584-.6.871-1.02.871S374.289,408.082,374.289,407.15Zm.122-4.95a30.024,30.024,0,0,0,1.882-2.667,3.537,3.537,0,0,1,.375-.5.4.4,0,0,1,.314-.148.776.776,0,0,0-.261-.619,1.046,1.046,0,0,0-.706-.235,2.51,2.51,0,0,0-1.743.776,6.1,6.1,0,0,0-1.316,1.83,4.359,4.359,0,0,0-.5,1.743.961.961,0,0,0,.157.558.5.5,0,0,0,.427.218C373.435,403.141,373.889,402.836,374.412,402.2Zm1.211,4.575a11.42,11.42,0,0,0,.07-1.412,5.743,5.743,0,0,0-.052-.828,12.507,12.507,0,0,0-.3,2.492c0,.244,0,.366.07.366S375.579,407.193,375.623,406.775Z" transform="translate(302.864 -377.911)" fill="#717171"/>
      <path id="Trazado_720" data-name="Trazado 720" d="M382.1,403.736a2.171,2.171,0,0,1-.392-1.29,5.73,5.73,0,0,1,.288-1.595,8.4,8.4,0,0,1,.654-1.656c.253-.47.479-.706.662-.706a.977.977,0,0,1,.383.131,2.079,2.079,0,0,1,.444.322,8.612,8.612,0,0,0-.767,1.577,5.064,5.064,0,0,0-.392,1.743,2.436,2.436,0,0,0,.1.7.419.419,0,0,0,.427.366c.436,0,.959-.488,1.56-1.455a22.47,22.47,0,0,0,1.56-2.963c.706.122,1.063.323,1.063.6a3.484,3.484,0,0,1-.218.514c-.244.575-.453,1.116-.627,1.6a3.8,3.8,0,0,0-.27,1.29c0,.418.157.619.479.619a1.742,1.742,0,0,0,.871-.34,5.226,5.226,0,0,0,1.063-.993,6.707,6.707,0,0,0,.95-1.49l.27.209a6.825,6.825,0,0,1-1,1.743,5.438,5.438,0,0,1-1.333,1.194,2.614,2.614,0,0,1-1.368.427.95.95,0,0,1-.993-.532,3.925,3.925,0,0,1-.218-1.447,8.928,8.928,0,0,1-1.133,1.455,1.57,1.57,0,0,1-1.107.523,1.151,1.151,0,0,1-.95-.549Z" transform="translate(301.483 -378.061)" fill="#717171"/>
      <path id="Trazado_721" data-name="Trazado 721" d="M392.91,403.763a2.057,2.057,0,0,1-.61-1.534,4.452,4.452,0,0,1,.689-2.222,6.561,6.561,0,0,1,1.743-2,3.554,3.554,0,0,1,2.109-.8,1.523,1.523,0,0,1,.924.27,1.072,1.072,0,0,1,.366.915,2.379,2.379,0,0,1-.654,1.595,4.816,4.816,0,0,1-1.682,1.229,6.843,6.843,0,0,1-2.109.6,2.683,2.683,0,0,0,0,.41,1.83,1.83,0,0,0,.261.871c.166.3.532.462,1.1.462a3.609,3.609,0,0,0,2.2-.871,6.659,6.659,0,0,0,1.8-2.179l.357.279a6.291,6.291,0,0,1-2.022,2.562,4.488,4.488,0,0,1-2.719.976A2.4,2.4,0,0,1,392.91,403.763Zm2.405-3.111a4.941,4.941,0,0,0,1.333-1.081,1.986,1.986,0,0,0,.549-1.264.417.417,0,0,0-.07-.27.348.348,0,0,0-.235-.07,1.873,1.873,0,0,0-1.115.488,5.674,5.674,0,0,0-1.116,1.229,5.829,5.829,0,0,0-.758,1.481,3.738,3.738,0,0,0,1.438-.514Z" transform="translate(300.121 -377.896)" fill="#717171"/>
      <path id="Trazado_722" data-name="Trazado 722" d="M400.21,407.5a1.611,1.611,0,0,1,.375-1.037,3.825,3.825,0,0,1,.924-.871q.549-.392,1.595-.994c.61-.348,1.115-.662,1.516-.915a2.212,2.212,0,0,0-.375-1.1,4.5,4.5,0,0,0-1.107-1.081,2.911,2.911,0,0,0,1.874-1.5,2.125,2.125,0,0,0,.261-.967.994.994,0,0,0-.174-.593.619.619,0,0,0-.549-.235,1.665,1.665,0,0,0-1.333.828,14.828,14.828,0,0,0-1.333,2.362l-.331-.279a10.826,10.826,0,0,1,1.4-2.806,2.222,2.222,0,0,1,1.856-.976,1.883,1.883,0,0,1,1.255.418,1.464,1.464,0,0,1,.488,1.176,2.492,2.492,0,0,1-.566,1.551,4.1,4.1,0,0,1-1.421,1.185,3.9,3.9,0,0,1,1.142,1.447,5.787,5.787,0,0,0,1.961-2.475l.227.288a4.986,4.986,0,0,1-.784,1.447,6.7,6.7,0,0,1-1.229,1.2,2.339,2.339,0,0,1,.07.575,3.87,3.87,0,0,1-.61,2.039,5.176,5.176,0,0,1-1.638,1.673,3.957,3.957,0,0,1-2.152.654C400.654,408.547,400.21,408.207,400.21,407.5Zm2.283-.087a4.813,4.813,0,0,0,1.342-1.238,3.8,3.8,0,0,0,.749-1.743l-1.237.723a19.049,19.049,0,0,0-1.926,1.264,1.308,1.308,0,0,0-.593.994.471.471,0,0,0,.131.366.5.5,0,0,0,.349.113,2.487,2.487,0,0,0,1.185-.462Z" transform="translate(299.104 -377.913)" fill="#717171"/>
    </g>
  </g>
</svg>
