<svg xmlns="http://www.w3.org/2000/svg" width="19.107" height="19.107" viewBox="0 0 19.107 19.107">
  <path id="WhatsApp" d="M19.107,9.307A9.4,9.4,0,0,1,5.193,17.457L0,19.107l1.693-4.994A9.209,9.209,0,0,1,.347,9.307a9.38,9.38,0,0,1,18.76,0ZM9.727,1.482A7.864,7.864,0,0,0,1.841,9.307a7.743,7.743,0,0,0,1.5,4.588L2.358,16.8l3.031-.963a7.894,7.894,0,0,0,12.225-6.53A7.865,7.865,0,0,0,9.727,1.482Zm4.737,9.969c-.058-.095-.211-.152-.441-.266s-1.361-.666-1.571-.742-.365-.114-.518.114-.594.742-.728.894-.268.172-.5.058a6.293,6.293,0,0,1-1.849-1.132A6.878,6.878,0,0,1,7.58,8.8c-.134-.228-.014-.352.1-.465s.23-.266.345-.4a1.529,1.529,0,0,0,.23-.381.416.416,0,0,0-.019-.4c-.057-.114-.518-1.237-.709-1.693s-.383-.38-.517-.38-.287-.019-.441-.019a.849.849,0,0,0-.613.285,2.551,2.551,0,0,0-.8,1.9,4.414,4.414,0,0,0,.939,2.359,9.4,9.4,0,0,0,3.928,3.444c2.338.913,2.338.608,2.759.57a2.326,2.326,0,0,0,1.552-1.084A1.9,1.9,0,0,0,14.464,11.451Z" transform="translate(0)" fill="#717171"/>
</svg>
