<svg xmlns="http://www.w3.org/2000/svg" width="24" height="20.99" viewBox="0 0 24 20.99">
  <g id="Grupo_2605" data-name="Grupo 2605" transform="translate(-635 -3239)">
    <g id="noun_Telephone_253181" transform="translate(635 3237.495)">
      <g id="Grupo_2621" data-name="Grupo 2621">
        <g id="Grupo_2618" data-name="Grupo 2618">
          <g id="Grupo_2606" data-name="Grupo 2606">
            <g id="Grupo_2605-2" data-name="Grupo 2605">
              <path id="Trazado_764" data-name="Trazado 764" d="M20.165,10.995a1.5,1.5,0,0,1-1.015-.4A10.3,10.3,0,0,0,16.712,8.9,1.487,1.487,0,0,1,16,7.495V4.866A15.468,15.468,0,0,0,12,4.5a15.821,15.821,0,0,0-4,.374V7.5a1.517,1.517,0,0,1-.727,1.4,10.528,10.528,0,0,0-2.428,1.69A1.519,1.519,0,0,1,2.8,10.561L.424,8.185A1.419,1.419,0,0,1,0,7.16,1.45,1.45,0,0,1,.424,6.126a16.809,16.809,0,0,1,23.142-.009,1.472,1.472,0,0,1,.01,2.077L21.2,10.571A1.454,1.454,0,0,1,20.165,10.995ZM12,3.495a14.93,14.93,0,0,1,4.658.526A.5.5,0,0,1,17,4.495v3c0,.3.092.479.154.509a11.341,11.341,0,0,1,2.682,1.857.484.484,0,0,0,.656,0l2.377-2.377A.457.457,0,0,0,23,7.16a.462.462,0,0,0-.132-.328,15.81,15.81,0,0,0-21.746.011A.451.451,0,0,0,1,7.16a.419.419,0,0,0,.122.308L3.509,9.854a.485.485,0,0,0,.644.01A11.52,11.52,0,0,1,6.832,8,.621.621,0,0,0,7,7.495v-3a.5.5,0,0,1,.346-.475A15.376,15.376,0,0,1,12,3.495Z" fill="#69abbe"/>
            </g>
          </g>
          <g id="Grupo_2607" data-name="Grupo 2607">
            <path id="Trazado_765" data-name="Trazado 765" d="M21.5,22.5H2.5A.5.5,0,0,1,2,22v-3.82a5.523,5.523,0,0,1,.581-2.459.484.484,0,0,1,.08-.115L8.133,9.657A.5.5,0,0,1,8.5,9.495h7a.5.5,0,0,1,.368.161L21.34,15.6a.5.5,0,0,1,.08.115A5.526,5.526,0,0,1,22,18.174v3.82A.5.5,0,0,1,21.5,22.5ZM3,21.5H21v-3.32a4.529,4.529,0,0,0-.445-1.951L15.281,10.5H8.719L3.445,16.224A4.537,4.537,0,0,0,3,18.176Z" fill="#69abbe"/>
          </g>
          <g id="Grupo_2608" data-name="Grupo 2608">
            <path id="Trazado_766" data-name="Trazado 766" d="M9.665,16.5H8.5a.5.5,0,0,1,0-1H9.665a.5.5,0,1,1,0,1Z" fill="#69abbe"/>
          </g>
          <g id="Grupo_2609" data-name="Grupo 2609">
            <path id="Trazado_767" data-name="Trazado 767" d="M12.612,16.5H11.365a.5.5,0,1,1,0-1h1.247a.5.5,0,1,1,0,1Z" fill="#69abbe"/>
          </g>
          <g id="Grupo_2610" data-name="Grupo 2610">
            <path id="Trazado_768" data-name="Trazado 768" d="M15.5,16.5H14.359a.5.5,0,0,1,0-1H15.5a.5.5,0,0,1,0,1Z" fill="#69abbe"/>
          </g>
          <g id="Grupo_2611" data-name="Grupo 2611">
            <path id="Trazado_769" data-name="Trazado 769" d="M10,14.495H9a.5.5,0,0,1,0-1h1a.5.5,0,0,1,0,1Z" fill="#69abbe"/>
          </g>
          <g id="Grupo_2612" data-name="Grupo 2612">
            <path id="Trazado_770" data-name="Trazado 770" d="M12.5,14.495h-1a.5.5,0,0,1,0-1h1a.5.5,0,0,1,0,1Z" fill="#69abbe"/>
          </g>
          <g id="Grupo_2613" data-name="Grupo 2613">
            <path id="Trazado_771" data-name="Trazado 771" d="M15,14.495H14a.5.5,0,0,1,0-1h1a.5.5,0,0,1,0,1Z" fill="#69abbe"/>
          </g>
          <g id="Grupo_2614" data-name="Grupo 2614">
            <path id="Trazado_772" data-name="Trazado 772" d="M10,11.995" fill="none" stroke="#000" stroke-linecap="round" stroke-linejoin="round" stroke-miterlimit="10" stroke-width="1"/>
          </g>
          <g id="Grupo_2615" data-name="Grupo 2615">
            <path id="Trazado_773" data-name="Trazado 773" d="M10,12.495H9.5a.5.5,0,0,1,0-1H10a.5.5,0,0,1,0,1Z" fill="#69abbe"/>
          </g>
          <g id="Grupo_2616" data-name="Grupo 2616">
            <path id="Trazado_774" data-name="Trazado 774" d="M12.25,12.495h-.5a.5.5,0,0,1,0-1h.5a.5.5,0,0,1,0,1Z" fill="#69abbe"/>
          </g>
          <g id="Grupo_2617" data-name="Grupo 2617">
            <path id="Trazado_775" data-name="Trazado 775" d="M14.5,12.495H14a.5.5,0,0,1,0-1h.5a.5.5,0,0,1,0,1Z" fill="#69abbe"/>
          </g>
        </g>
        <g id="Grupo_2619" data-name="Grupo 2619">
          <path id="Trazado_776" data-name="Trazado 776" d="M9.5,10.495a.5.5,0,0,1-.5-.5v-2a.5.5,0,0,1,1,0v2A.5.5,0,0,1,9.5,10.495Z" fill="#69abbe"/>
        </g>
        <g id="Grupo_2620" data-name="Grupo 2620">
          <path id="Trazado_777" data-name="Trazado 777" d="M14.5,10.495a.5.5,0,0,1-.5-.5v-2a.5.5,0,0,1,1,0v2A.5.5,0,0,1,14.5,10.495Z" fill="#69abbe"/>
        </g>
      </g>
    </g>
    <path id="Trazado_778" data-name="Trazado 778" d="M675.277,3134.473l5.224-3.655,5.784-1.329,5.026.486,4.374,2.127,2.474,1.535.393,1.091-.393.893-2.474,2.438-1.243-.275-3.13-2.163v-3.9l-4.386-.265-4.4.642v3.519l-3.744,2.438Z" transform="translate(-40 110)" fill="#69abbe" opacity="0.4"/>
  </g>
</svg>
