<svg id="Grupo_2534" data-name="Grupo 2534" xmlns="http://www.w3.org/2000/svg" width="271.814" height="50.718" viewBox="0 0 271.814 50.718">
  <path id="Trazado_723" data-name="Trazado 723" d="M145.932,326.472a4.73,4.73,0,0,0-1.317.2.919.919,0,0,0-.57.576,4.7,4.7,0,0,0-.147,1.391v12.8a4.116,4.116,0,0,0,.123,1.17.772.772,0,0,0,.441.49,2.912,2.912,0,0,0,1.017.129H146.7a3.676,3.676,0,0,0,2.953-1.538,8.27,8.27,0,0,0,1.624-4.08h.576c-.049.57-.074,1.305-.074,2.212a36.918,36.918,0,0,0,.178,3.982q-1.709-.074-5.759-.074-5.477,0-8.192.074v-.5a4.63,4.63,0,0,0,1.225-.2.87.87,0,0,0,.527-.613,4.975,4.975,0,0,0,.135-1.385V328.641a5.024,5.024,0,0,0-.135-1.391.87.87,0,0,0-.527-.576,4.168,4.168,0,0,0-1.225-.2V326q1.274.073,3.97.074,2.567,0,3.946-.074Z" transform="translate(-75.493 -309.578)" fill="#5d5d5d"/>
  <path id="Trazado_724" data-name="Trazado 724" d="M182.751,326.472a2.671,2.671,0,0,0-1.225.429,1.581,1.581,0,0,0-.527.956,10.1,10.1,0,0,0-.141,1.942v6.672a10.771,10.771,0,0,1-1.029,5.343,4.546,4.546,0,0,1-1.961,1.728,8.582,8.582,0,0,1-7.665-.649,4.534,4.534,0,0,1-1.562-2.353,15.409,15.409,0,0,1-.4-3.995v-7.9a4.968,4.968,0,0,0-.141-1.391.87.87,0,0,0-.527-.576,4.168,4.168,0,0,0-1.225-.2V326c.852.049,2.163.074,3.921.074s3.063,0,3.995-.074v.5a4.727,4.727,0,0,0-1.317.2.9.9,0,0,0-.564.576,4.457,4.457,0,0,0-.153,1.391v9.5a7.638,7.638,0,0,0,.766,3.891,2.88,2.88,0,0,0,2.7,1.225,3.817,3.817,0,0,0,3.547-1.7,9.3,9.3,0,0,0,1.029-4.822V330.1a9.8,9.8,0,0,0-.178-2.169,1.586,1.586,0,0,0-.68-1.017,3.994,3.994,0,0,0-1.581-.441V326c.613.049,1.544.074,2.714.074q1.409,0,2.187-.074Z" transform="translate(-86.469 -309.578)" fill="#5d5d5d"/>
  <path id="Trazado_725" data-name="Trazado 725" d="M214.893,342.955a1.354,1.354,0,0,0,.8.276v.527c-1.74-.067-2.886-.1-3.443-.1s-1.709,0-3.517.074a4.181,4.181,0,0,1-.527,0v-.527a6.126,6.126,0,0,0,1.28-.092c.251-.055.38-.171.38-.337a.81.81,0,0,0-.178-.429l-4.221-6.225-2.016,2.745a4.779,4.779,0,0,0-1.152,2.647,1.458,1.458,0,0,0,.564,1.225,2.739,2.739,0,0,0,1.569.49v.5q-1.434-.074-3.97-.074a19.661,19.661,0,0,0-2.31.074v-.5a8.471,8.471,0,0,0,3.676-3.063l3.339-4.509-5.428-7.965a4.624,4.624,0,0,0-.8-1,1.4,1.4,0,0,0-.809-.263V325.9a3.8,3.8,0,0,1,.5,0c1.611.049,2.641.074,3.063.074q2.187,0,3.848-.1v.527a4.858,4.858,0,0,0-1.225.11c-.251.08-.38.2-.38.368a.858.858,0,0,0,.2.478l3.743,5.514,1.838-2.524a4.666,4.666,0,0,0,1.182-2.543,1.152,1.152,0,0,0-.478-.98,2.451,2.451,0,0,0-1.36-.4v-.472c.956.049,2.016.074,3.168.074q1.507,0,2.316-.074v.5a4.288,4.288,0,0,0-1.624.931,9.84,9.84,0,0,0-1.544,1.715l-3.192,4.289,5.882,8.614a5.393,5.393,0,0,0,.821.95Z" transform="translate(-98.778 -309.532)" fill="#5d5d5d"/>
  <path id="Trazado_726" data-name="Trazado 726" d="M247.628,326.472a2.647,2.647,0,0,0-1.225.429,1.557,1.557,0,0,0-.533.956,10.2,10.2,0,0,0-.135,1.942v6.672a10.771,10.771,0,0,1-1.029,5.343,4.546,4.546,0,0,1-1.961,1.728,7.244,7.244,0,0,1-3.143.613,7.17,7.17,0,0,1-4.528-1.262,4.522,4.522,0,0,1-1.556-2.353,15.365,15.365,0,0,1-.4-3.995v-7.9a5.024,5.024,0,0,0-.135-1.391.864.864,0,0,0-.533-.576,4.084,4.084,0,0,0-1.225-.2V326q1.287.073,3.921.074c1.746,0,3.063,0,4-.074v.5a4.783,4.783,0,0,0-1.323.2.906.906,0,0,0-.564.576,4.651,4.651,0,0,0-.153,1.391v9.5a7.587,7.587,0,0,0,.772,3.891,2.888,2.888,0,0,0,2.7,1.225,3.809,3.809,0,0,0,3.541-1.7,9.288,9.288,0,0,0,1.029-4.822V330.1a9.873,9.873,0,0,0-.171-2.169,1.586,1.586,0,0,0-.68-1.017,4.031,4.031,0,0,0-1.587-.441V326q.956.073,2.72.074,1.409,0,2.187-.074Z" transform="translate(-111.595 -309.578)" fill="#5d5d5d"/>
  <path id="Trazado_727" data-name="Trazado 727" d="M281.209,342.7a4.153,4.153,0,0,1-1.458,1.121,4.7,4.7,0,0,1-1.887.343,3.817,3.817,0,0,1-2.3-.613,3.137,3.137,0,0,1-1.1-2.108l-.453-2.524a9.485,9.485,0,0,0-.79-2.708,1.617,1.617,0,0,0-1.544-.87h-1.636v5.8a4.9,4.9,0,0,0,.135,1.409.863.863,0,0,0,.515.613,4.492,4.492,0,0,0,1.225.2v.5c-.907-.049-2.169-.074-3.8-.074q-2.684,0-3.97.074v-.5a4.576,4.576,0,0,0,1.225-.2.852.852,0,0,0,.527-.613,4.9,4.9,0,0,0,.141-1.385V328.641a4.972,4.972,0,0,0-.153-1.415.858.858,0,0,0-.527-.576,4.127,4.127,0,0,0-1.225-.2V326c.858.049,2.126.074,3.823.074h3.946a9.7,9.7,0,0,1,5.214,1.133,3.676,3.676,0,0,1,1.746,3.247,4.412,4.412,0,0,1-1.305,3.149,6.966,6.966,0,0,1-4.325,1.715,6.965,6.965,0,0,1,3.37.98,3.675,3.675,0,0,1,1.434,2.347l.576,2.592a4.457,4.457,0,0,0,.466,1.415.833.833,0,0,0,.741.4,1.183,1.183,0,0,0,.515-.147,2.213,2.213,0,0,0,.49-.429Zm-10.593-16.046a.937.937,0,0,0-.441.613,5.324,5.324,0,0,0-.129,1.36v6.194h1.084a3.2,3.2,0,0,0,2.824-1.1,5.294,5.294,0,0,0,.766-3.064,5.477,5.477,0,0,0-.729-3.125,2.69,2.69,0,0,0-2.383-1.06A2.121,2.121,0,0,0,270.616,326.649Z" transform="translate(-124.346 -309.578)" fill="#5d5d5d"/>
  <path id="Trazado_728" data-name="Trazado 728" d="M309.161,325.91v.5q-1.158.478-2.414,2.922l-2.965,5.894V341.1a4.974,4.974,0,0,0,.135,1.385.864.864,0,0,0,.515.613,4.6,4.6,0,0,0,1.225.2v.5q-1.36-.073-3.872-.074-2.7,0-3.9.074v-.5a4.629,4.629,0,0,0,1.225-.2.87.87,0,0,0,.527-.613,4.98,4.98,0,0,0,.135-1.385V336.84l-4.846-8.994c-.521-.937-1.011-1.409-1.458-1.409v-.527a28.731,28.731,0,0,0,2.965.123q2.334,0,4.724-.123v.527a4.729,4.729,0,0,0-1.4.165.626.626,0,0,0-.515.613,1.255,1.255,0,0,0,.178.558l3.823,7.352,1.961-3.933a7.792,7.792,0,0,0,.98-3.125,1.4,1.4,0,0,0-.545-1.225,2.892,2.892,0,0,0-1.544-.429v-.5q1.709.074,3.143.073Q308.407,325.965,309.161,325.91Z" transform="translate(-135.706 -309.544)" fill="#5d5d5d"/>
  <path id="Trazado_729" data-name="Trazado 729" d="M346.652,325.66a8.13,8.13,0,0,1,1.587.735l.49.251a.872.872,0,0,0,.361.1.386.386,0,0,0,.355-.263,3.4,3.4,0,0,0,.2-.845h.576c-.086,1.127-.129,3.063-.129,5.747h-.576a8.336,8.336,0,0,0-.613-2.6,5.085,5.085,0,0,0-1.458-2,3.406,3.406,0,0,0-2.2-.766,2.9,2.9,0,0,0-2,.692,2.414,2.414,0,0,0-.766,1.875,3.027,3.027,0,0,0,.38,1.538,4.2,4.2,0,0,0,1.054,1.225c.453.361,1.152.852,2.089,1.47l.8.557a24.691,24.691,0,0,1,2.34,1.709,6.2,6.2,0,0,1,1.391,1.7,4.533,4.533,0,0,1,.545,2.255,4.374,4.374,0,0,1-.833,2.708A5.042,5.042,0,0,1,348,343.4a8.66,8.66,0,0,1-3.155.558,9.294,9.294,0,0,1-2.34-.251,8.153,8.153,0,0,1-1.709-.68,1.77,1.77,0,0,0-.852-.355.386.386,0,0,0-.355.264,3.183,3.183,0,0,0-.2.846h-.582q.1-1.593.1-6.8h.576a9.839,9.839,0,0,0,1.256,4.571,3.627,3.627,0,0,0,3.321,1.752,3.394,3.394,0,0,0,2.236-.729,2.574,2.574,0,0,0,.882-2.1,3.523,3.523,0,0,0-.907-2.451,14.7,14.7,0,0,0-2.867-2.267q-1.507-.98-2.414-1.709a6.343,6.343,0,0,1-1.458-1.722,4.5,4.5,0,0,1-.576-2.3,4.191,4.191,0,0,1,.766-2.561,4.514,4.514,0,0,1,2.046-1.544,7.633,7.633,0,0,1,2.818-.509A7.035,7.035,0,0,1,346.652,325.66Z" transform="translate(-153.267 -309.348)" fill="#5d5d5d"/>
  <path id="Trazado_730" data-name="Trazado 730" d="M386.423,326.666a.871.871,0,0,0-.515.576,4.964,4.964,0,0,0-.141,1.391v12.492a4.9,4.9,0,0,0,.141,1.385.87.87,0,0,0,.527.613,4.577,4.577,0,0,0,1.225.2v.5q-1.378-.074-3.946-.074-2.69,0-3.97.074v-.5a5.244,5.244,0,0,0,1.317-.2.888.888,0,0,0,.564-.613,4.411,4.411,0,0,0,.153-1.385V327.953l-6.059,15.868h-.4L368.533,327.6v12.07a11.474,11.474,0,0,0,.147,2.175,1.5,1.5,0,0,0,.656,1.011,4.146,4.146,0,0,0,1.636.441v.5c-.656-.049-1.562-.073-2.714-.073q-1.385,0-2.187.073v-.5a2.7,2.7,0,0,0,1.225-.429,1.581,1.581,0,0,0,.527-.956,10.23,10.23,0,0,0,.135-1.942V328.633a5.023,5.023,0,0,0-.135-1.391.87.87,0,0,0-.527-.576,4.168,4.168,0,0,0-1.225-.2v-.472q.8.073,2.187.074,2.3,0,3.97-.074l5.079,12.254,4.626-12.192h1.783q2.561,0,3.946-.073v.5A4.067,4.067,0,0,0,386.423,326.666Z" transform="translate(-163.825 -309.571)" fill="#5d5d5d"/>
  <path id="Trazado_731" data-name="Trazado 731" d="M415.915,326.472a4.07,4.07,0,0,0-1.225.2.87.87,0,0,0-.515.576,4.964,4.964,0,0,0-.141,1.391v12.492a4.9,4.9,0,0,0,.147,1.409.864.864,0,0,0,.515.613,4.491,4.491,0,0,0,1.225.2v.5c-.907-.049-2.169-.074-3.8-.074q-2.684,0-3.97.074v-.5a4.575,4.575,0,0,0,1.225-.2.852.852,0,0,0,.527-.613,4.9,4.9,0,0,0,.141-1.385V328.641a4.967,4.967,0,0,0-.153-1.415.858.858,0,0,0-.527-.576,4.126,4.126,0,0,0-1.225-.2V326q1.287.073,3.97.074c1.63,0,2.892,0,3.8-.074Z" transform="translate(-180.12 -309.578)" fill="#5d5d5d"/>
  <path id="Trazado_732" data-name="Trazado 732" d="M435.617,326.472a4.743,4.743,0,0,0-1.323.2.9.9,0,0,0-.564.576,4.455,4.455,0,0,0-.153,1.391v12.8a3.858,3.858,0,0,0,.129,1.17.742.742,0,0,0,.441.49,2.889,2.889,0,0,0,1.017.129h1.225a3.713,3.713,0,0,0,2.953-1.538,8.325,8.325,0,0,0,1.617-4.08h.613c-.049.57-.074,1.305-.074,2.212a37.094,37.094,0,0,0,.172,3.982q-1.71-.074-5.753-.074c-3.676,0-6.384,0-8.2.074v-.5a4.579,4.579,0,0,0,1.225-.2.871.871,0,0,0,.527-.613,4.9,4.9,0,0,0,.141-1.385V328.641a4.962,4.962,0,0,0-.141-1.391.87.87,0,0,0-.527-.576,4.122,4.122,0,0,0-1.225-.2V326q1.286.073,3.97.074,2.561,0,3.952-.074Z" transform="translate(-187.704 -309.578)" fill="#5d5d5d"/>
  <path id="Trazado_733" data-name="Trazado 733" d="M470.8,343.8q-1.709-.074-5.753-.074c-3.676,0-6.384,0-8.2.074v-.5a4.532,4.532,0,0,0,1.225-.2.852.852,0,0,0,.527-.613,4.9,4.9,0,0,0,.141-1.385V328.641a4.971,4.971,0,0,0-.141-1.391.858.858,0,0,0-.527-.576,4.084,4.084,0,0,0-1.225-.2V326c1.838.049,4.54.074,8.2.074q3.676,0,5.251-.074-.178,2.089-.172,3.725a15.16,15.16,0,0,0,.073,1.716h-.576a7.222,7.222,0,0,0-1.36-3.78,3.535,3.535,0,0,0-2.763-1.084h-1.035a3.564,3.564,0,0,0-1.127.129.748.748,0,0,0-.478.49,3.863,3.863,0,0,0-.129,1.17v6.213h.809a2.309,2.309,0,0,0,2.022-.98,6.18,6.18,0,0,0,.968-2.347h.576q-.073,1.06-.074,2.371v1.225q0,1.287.153,3.578h-.613q-.527-3.327-3.063-3.327H462.7v6.341a3.859,3.859,0,0,0,.129,1.17.748.748,0,0,0,.478.49,3.568,3.568,0,0,0,1.127.129h1.225A3.676,3.676,0,0,0,468.54,342a8.218,8.218,0,0,0,1.55-4.142h.576q-.073.827-.073,2.114a34.536,34.536,0,0,0,.208,3.829Z" transform="translate(-198.986 -309.578)" fill="#5d5d5d"/>
  <path id="Trazado_734" data-name="Trazado 734" d="M145.932,326.472a4.73,4.73,0,0,0-1.317.2.919.919,0,0,0-.57.576,4.7,4.7,0,0,0-.147,1.391v12.8a4.116,4.116,0,0,0,.123,1.17.772.772,0,0,0,.441.49,2.912,2.912,0,0,0,1.017.129H146.7a3.676,3.676,0,0,0,2.953-1.538,8.27,8.27,0,0,0,1.624-4.08h.576c-.049.57-.074,1.305-.074,2.212a36.918,36.918,0,0,0,.178,3.982q-1.709-.074-5.759-.074-5.477,0-8.192.074v-.5a4.63,4.63,0,0,0,1.225-.2.87.87,0,0,0,.527-.613,4.975,4.975,0,0,0,.135-1.385V328.641a5.024,5.024,0,0,0-.135-1.391.87.87,0,0,0-.527-.576,4.168,4.168,0,0,0-1.225-.2V326q1.274.073,3.97.074,2.567,0,3.946-.074Z" transform="translate(-75.493 -309.578)" fill="#5d5d5d"/>
  <path id="Trazado_735" data-name="Trazado 735" d="M182.751,326.472a2.671,2.671,0,0,0-1.225.429,1.581,1.581,0,0,0-.527.956,10.1,10.1,0,0,0-.141,1.942v6.672a10.771,10.771,0,0,1-1.029,5.343,4.546,4.546,0,0,1-1.961,1.728,8.582,8.582,0,0,1-7.665-.649,4.534,4.534,0,0,1-1.562-2.353,15.409,15.409,0,0,1-.4-3.995v-7.9a4.968,4.968,0,0,0-.141-1.391.87.87,0,0,0-.527-.576,4.168,4.168,0,0,0-1.225-.2V326c.852.049,2.163.074,3.921.074s3.063,0,3.995-.074v.5a4.727,4.727,0,0,0-1.317.2.9.9,0,0,0-.564.576,4.457,4.457,0,0,0-.153,1.391v9.5a7.638,7.638,0,0,0,.766,3.891,2.88,2.88,0,0,0,2.7,1.225,3.817,3.817,0,0,0,3.547-1.7,9.3,9.3,0,0,0,1.029-4.822V330.1a9.8,9.8,0,0,0-.178-2.169,1.586,1.586,0,0,0-.68-1.017,3.994,3.994,0,0,0-1.581-.441V326c.613.049,1.544.074,2.714.074q1.409,0,2.187-.074Z" transform="translate(-86.469 -309.578)" fill="#5d5d5d"/>
  <path id="Trazado_736" data-name="Trazado 736" d="M214.893,342.955a1.354,1.354,0,0,0,.8.276v.527c-1.74-.067-2.886-.1-3.443-.1s-1.709,0-3.517.074a4.181,4.181,0,0,1-.527,0v-.527a6.126,6.126,0,0,0,1.28-.092c.251-.055.38-.171.38-.337a.81.81,0,0,0-.178-.429l-4.221-6.225-2.016,2.745a4.779,4.779,0,0,0-1.152,2.647,1.458,1.458,0,0,0,.564,1.225,2.739,2.739,0,0,0,1.569.49v.5q-1.434-.074-3.97-.074a19.661,19.661,0,0,0-2.31.074v-.5a8.471,8.471,0,0,0,3.676-3.063l3.339-4.509-5.428-7.965a4.624,4.624,0,0,0-.8-1,1.4,1.4,0,0,0-.809-.263V325.9a3.8,3.8,0,0,1,.5,0c1.611.049,2.641.074,3.063.074q2.187,0,3.848-.1v.527a4.858,4.858,0,0,0-1.225.11c-.251.08-.38.2-.38.368a.858.858,0,0,0,.2.478l3.743,5.514,1.838-2.524a4.666,4.666,0,0,0,1.182-2.543,1.152,1.152,0,0,0-.478-.98,2.451,2.451,0,0,0-1.36-.4v-.472c.956.049,2.016.074,3.168.074q1.507,0,2.316-.074v.5a4.288,4.288,0,0,0-1.624.931,9.84,9.84,0,0,0-1.544,1.715l-3.192,4.289,5.882,8.614a5.393,5.393,0,0,0,.821.95Z" transform="translate(-98.778 -309.532)" fill="#5d5d5d"/>
  <path id="Trazado_737" data-name="Trazado 737" d="M247.628,326.472a2.647,2.647,0,0,0-1.225.429,1.557,1.557,0,0,0-.533.956,10.2,10.2,0,0,0-.135,1.942v6.672a10.771,10.771,0,0,1-1.029,5.343,4.546,4.546,0,0,1-1.961,1.728,7.244,7.244,0,0,1-3.143.613,7.17,7.17,0,0,1-4.528-1.262,4.522,4.522,0,0,1-1.556-2.353,15.365,15.365,0,0,1-.4-3.995v-7.9a5.024,5.024,0,0,0-.135-1.391.864.864,0,0,0-.533-.576,4.084,4.084,0,0,0-1.225-.2V326q1.287.073,3.921.074c1.746,0,3.063,0,4-.074v.5a4.783,4.783,0,0,0-1.323.2.906.906,0,0,0-.564.576,4.651,4.651,0,0,0-.153,1.391v9.5a7.587,7.587,0,0,0,.772,3.891,2.888,2.888,0,0,0,2.7,1.225,3.809,3.809,0,0,0,3.541-1.7,9.288,9.288,0,0,0,1.029-4.822V330.1a9.873,9.873,0,0,0-.171-2.169,1.586,1.586,0,0,0-.68-1.017,4.031,4.031,0,0,0-1.587-.441V326q.956.073,2.72.074,1.409,0,2.187-.074Z" transform="translate(-111.595 -309.578)" fill="#5d5d5d"/>
  <path id="Trazado_738" data-name="Trazado 738" d="M281.209,342.7a4.153,4.153,0,0,1-1.458,1.121,4.7,4.7,0,0,1-1.887.343,3.817,3.817,0,0,1-2.3-.613,3.137,3.137,0,0,1-1.1-2.108l-.453-2.524a9.485,9.485,0,0,0-.79-2.708,1.617,1.617,0,0,0-1.544-.87h-1.636v5.8a4.9,4.9,0,0,0,.135,1.409.863.863,0,0,0,.515.613,4.492,4.492,0,0,0,1.225.2v.5c-.907-.049-2.169-.074-3.8-.074q-2.684,0-3.97.074v-.5a4.576,4.576,0,0,0,1.225-.2.852.852,0,0,0,.527-.613,4.9,4.9,0,0,0,.141-1.385V328.641a4.972,4.972,0,0,0-.153-1.415.858.858,0,0,0-.527-.576,4.127,4.127,0,0,0-1.225-.2V326c.858.049,2.126.074,3.823.074h3.946a9.7,9.7,0,0,1,5.214,1.133,3.676,3.676,0,0,1,1.746,3.247,4.412,4.412,0,0,1-1.305,3.149,6.966,6.966,0,0,1-4.325,1.715,6.965,6.965,0,0,1,3.37.98,3.675,3.675,0,0,1,1.434,2.347l.576,2.592a4.457,4.457,0,0,0,.466,1.415.833.833,0,0,0,.741.4,1.183,1.183,0,0,0,.515-.147,2.213,2.213,0,0,0,.49-.429Zm-10.593-16.046a.937.937,0,0,0-.441.613,5.324,5.324,0,0,0-.129,1.36v6.194h1.084a3.2,3.2,0,0,0,2.824-1.1,5.294,5.294,0,0,0,.766-3.064,5.477,5.477,0,0,0-.729-3.125,2.69,2.69,0,0,0-2.383-1.06A2.121,2.121,0,0,0,270.616,326.649Z" transform="translate(-124.346 -309.578)" fill="#5d5d5d"/>
  <path id="Trazado_739" data-name="Trazado 739" d="M309.161,325.91v.5q-1.158.478-2.414,2.922l-2.965,5.894V341.1a4.974,4.974,0,0,0,.135,1.385.864.864,0,0,0,.515.613,4.6,4.6,0,0,0,1.225.2v.5q-1.36-.073-3.872-.074-2.7,0-3.9.074v-.5a4.629,4.629,0,0,0,1.225-.2.87.87,0,0,0,.527-.613,4.98,4.98,0,0,0,.135-1.385V336.84l-4.846-8.994c-.521-.937-1.011-1.409-1.458-1.409v-.527a28.731,28.731,0,0,0,2.965.123q2.334,0,4.724-.123v.527a4.729,4.729,0,0,0-1.4.165.626.626,0,0,0-.515.613,1.255,1.255,0,0,0,.178.558l3.823,7.352,1.961-3.933a7.792,7.792,0,0,0,.98-3.125,1.4,1.4,0,0,0-.545-1.225,2.892,2.892,0,0,0-1.544-.429v-.5q1.709.074,3.143.073Q308.407,325.965,309.161,325.91Z" transform="translate(-135.706 -309.544)" fill="#5d5d5d"/>
  <path id="Trazado_740" data-name="Trazado 740" d="M346.652,325.66a8.13,8.13,0,0,1,1.587.735l.49.251a.872.872,0,0,0,.361.1.386.386,0,0,0,.355-.263,3.4,3.4,0,0,0,.2-.845h.576c-.086,1.127-.129,3.063-.129,5.747h-.576a8.336,8.336,0,0,0-.613-2.6,5.085,5.085,0,0,0-1.458-2,3.406,3.406,0,0,0-2.2-.766,2.9,2.9,0,0,0-2,.692,2.414,2.414,0,0,0-.766,1.875,3.027,3.027,0,0,0,.38,1.538,4.2,4.2,0,0,0,1.054,1.225c.453.361,1.152.852,2.089,1.47l.8.557a24.691,24.691,0,0,1,2.34,1.709,6.2,6.2,0,0,1,1.391,1.7,4.533,4.533,0,0,1,.545,2.255,4.374,4.374,0,0,1-.833,2.708A5.042,5.042,0,0,1,348,343.4a8.66,8.66,0,0,1-3.155.558,9.294,9.294,0,0,1-2.34-.251,8.153,8.153,0,0,1-1.709-.68,1.77,1.77,0,0,0-.852-.355.386.386,0,0,0-.355.264,3.183,3.183,0,0,0-.2.846h-.582q.1-1.593.1-6.8h.576a9.839,9.839,0,0,0,1.256,4.571,3.627,3.627,0,0,0,3.321,1.752,3.394,3.394,0,0,0,2.236-.729,2.574,2.574,0,0,0,.882-2.1,3.523,3.523,0,0,0-.907-2.451,14.7,14.7,0,0,0-2.867-2.267q-1.507-.98-2.414-1.709a6.343,6.343,0,0,1-1.458-1.722,4.5,4.5,0,0,1-.576-2.3,4.191,4.191,0,0,1,.766-2.561,4.514,4.514,0,0,1,2.046-1.544,7.633,7.633,0,0,1,2.818-.509A7.035,7.035,0,0,1,346.652,325.66Z" transform="translate(-153.267 -309.348)" fill="#5d5d5d"/>
  <path id="Trazado_741" data-name="Trazado 741" d="M386.423,326.666a.871.871,0,0,0-.515.576,4.964,4.964,0,0,0-.141,1.391v12.492a4.9,4.9,0,0,0,.141,1.385.87.87,0,0,0,.527.613,4.577,4.577,0,0,0,1.225.2v.5q-1.378-.074-3.946-.074-2.69,0-3.97.074v-.5a5.244,5.244,0,0,0,1.317-.2.888.888,0,0,0,.564-.613,4.411,4.411,0,0,0,.153-1.385V327.953l-6.059,15.868h-.4L368.533,327.6v12.07a11.474,11.474,0,0,0,.147,2.175,1.5,1.5,0,0,0,.656,1.011,4.146,4.146,0,0,0,1.636.441v.5c-.656-.049-1.562-.073-2.714-.073q-1.385,0-2.187.073v-.5a2.7,2.7,0,0,0,1.225-.429,1.581,1.581,0,0,0,.527-.956,10.23,10.23,0,0,0,.135-1.942V328.633a5.023,5.023,0,0,0-.135-1.391.87.87,0,0,0-.527-.576,4.168,4.168,0,0,0-1.225-.2v-.472q.8.073,2.187.074,2.3,0,3.97-.074l5.079,12.254,4.626-12.192h1.783q2.561,0,3.946-.073v.5A4.067,4.067,0,0,0,386.423,326.666Z" transform="translate(-163.825 -309.571)" fill="#5d5d5d"/>
  <path id="Trazado_742" data-name="Trazado 742" d="M415.915,326.472a4.07,4.07,0,0,0-1.225.2.87.87,0,0,0-.515.576,4.964,4.964,0,0,0-.141,1.391v12.492a4.9,4.9,0,0,0,.147,1.409.864.864,0,0,0,.515.613,4.491,4.491,0,0,0,1.225.2v.5c-.907-.049-2.169-.074-3.8-.074q-2.684,0-3.97.074v-.5a4.575,4.575,0,0,0,1.225-.2.852.852,0,0,0,.527-.613,4.9,4.9,0,0,0,.141-1.385V328.641a4.967,4.967,0,0,0-.153-1.415.858.858,0,0,0-.527-.576,4.126,4.126,0,0,0-1.225-.2V326q1.287.073,3.97.074c1.63,0,2.892,0,3.8-.074Z" transform="translate(-180.12 -309.578)" fill="#5d5d5d"/>
  <path id="Trazado_743" data-name="Trazado 743" d="M435.617,326.472a4.743,4.743,0,0,0-1.323.2.9.9,0,0,0-.564.576,4.455,4.455,0,0,0-.153,1.391v12.8a3.858,3.858,0,0,0,.129,1.17.742.742,0,0,0,.441.49,2.889,2.889,0,0,0,1.017.129h1.225a3.713,3.713,0,0,0,2.953-1.538,8.325,8.325,0,0,0,1.617-4.08h.613c-.049.57-.074,1.305-.074,2.212a37.094,37.094,0,0,0,.172,3.982q-1.71-.074-5.753-.074c-3.676,0-6.384,0-8.2.074v-.5a4.579,4.579,0,0,0,1.225-.2.871.871,0,0,0,.527-.613,4.9,4.9,0,0,0,.141-1.385V328.641a4.962,4.962,0,0,0-.141-1.391.87.87,0,0,0-.527-.576,4.122,4.122,0,0,0-1.225-.2V326q1.286.073,3.97.074,2.561,0,3.952-.074Z" transform="translate(-187.704 -309.578)" fill="#5d5d5d"/>
  <path id="Trazado_744" data-name="Trazado 744" d="M470.8,343.8q-1.709-.074-5.753-.074c-3.676,0-6.384,0-8.2.074v-.5a4.532,4.532,0,0,0,1.225-.2.852.852,0,0,0,.527-.613,4.9,4.9,0,0,0,.141-1.385V328.641a4.971,4.971,0,0,0-.141-1.391.858.858,0,0,0-.527-.576,4.084,4.084,0,0,0-1.225-.2V326c1.838.049,4.54.074,8.2.074q3.676,0,5.251-.074-.178,2.089-.172,3.725a15.16,15.16,0,0,0,.073,1.716h-.576a7.222,7.222,0,0,0-1.36-3.78,3.535,3.535,0,0,0-2.763-1.084h-1.035a3.564,3.564,0,0,0-1.127.129.748.748,0,0,0-.478.49,3.863,3.863,0,0,0-.129,1.17v6.213h.809a2.309,2.309,0,0,0,2.022-.98,6.18,6.18,0,0,0,.968-2.347h.576q-.073,1.06-.074,2.371v1.225q0,1.287.153,3.578h-.613q-.527-3.327-3.063-3.327H462.7v6.341a3.859,3.859,0,0,0,.129,1.17.748.748,0,0,0,.478.49,3.568,3.568,0,0,0,1.127.129h1.225A3.676,3.676,0,0,0,468.54,342a8.218,8.218,0,0,0,1.55-4.142h.576q-.073.827-.073,2.114a34.536,34.536,0,0,0,.208,3.829Z" transform="translate(-198.986 -309.578)" fill="#5d5d5d"/>
  <path id="Trazado_746" data-name="Trazado 746" d="M290.29,151.654v-.04a.057.057,0,0,0,0-.023l-2.513-9.235h0q-.009-.022-.02-.043h0l-.03-.03h-.04l-8.625-3.777h0l-5.386-2.362a.2.2,0,0,0-.139,0l-7.649,1.93-9.13,2.309h-.017a.265.265,0,0,0-.053.026l-.02.016a.246.246,0,0,0-.053.063h0a.235.235,0,0,0-.02.063L255,151.443v.03h0v.04a.043.043,0,0,0,0,.02l4.14,10.4,1.036,12.445h0a.29.29,0,0,0,.026.086l1.959,3.414h0l4.44,7.735h0a.256.256,0,0,0,.059.059h.017a.237.237,0,0,0,.086.026h.109l.03-.017.026-.023.023-.03a.118.118,0,0,0,0-.03.176.176,0,0,0,.017-.036h0l1.557-7.725,1.676-8.576L271.252,179h0a.168.168,0,0,0,0,.043v.03l.026.033.023.026.033.02.03.016h0a.13.13,0,0,0,.049,0h.02a.188.188,0,0,0,.1-.026h.02a.266.266,0,0,0,.063-.059h0l2.767-4.5a.224.224,0,0,0,.03-.082h0l.683-6.389,3.556,8.906v9.648a.165.165,0,0,0,0,.04v.036a.16.16,0,0,0,.02.03l.02.033.026.023.036.023h.089a.228.228,0,0,0,.1-.023h.017a.189.189,0,0,0,.069-.066h0l5-8.124h0a.191.191,0,0,0,.03-.082l1.649-13.982,4.578-12.864a.085.085,0,0,0,0-.026A.168.168,0,0,0,290.29,151.654Zm-27.637-6.221,1.857-1.319.508.185,6.02,2.184-10.673.59Zm12.082,21.594-4.2.534.973-4.875.66-3.236.811,2.381Zm-11.6,5.911h0V172.9l-.637-6.175,3.645,11.917-3.536-.99Zm-1.3-8.925-.574-.548-1.633-1.6.989-1.794,1.194-2.134Zm11.3-23.042,5.1-1.867-5.815,6.818.389-2.678Zm8.836,20.747.076-3.707,3.127,6.382-3.275.97Zm-19.638-4.779,1.237-3.664,1.224-3.6,6.788,8.652-4.548-.683Zm.851-9.595,8.154-.452h0l-1.319.9-2.408-.158Zm9.737-.452,4.723.234.086,2.741-3.826-2.368Zm-7.7,2.589,12.362.97-5.479,7.807Zm6.9-2.589,4.021,2.487.4.251-3.5-.99-2.434-.7.989-.679Zm-2.048,1.339,1.448.416,4.327,1.234-11.056-.867-1.174-.435-2.527-.943,4.13.274Zm5.073,6.445,2.813-4.007.086.148,3.483,6.132-8.866,1.369h-.079Zm3.513-3.651-.4-.709,8.823-7.23-5.244,13.523Zm-.478-1.207v-.132l-.079-2.639,8.015-3.737-4.67,3.826Zm-5.607-3.377,6.079-7.128-.957,7.382Zm-12.629,1.23.9.33,3.628,1.352-.808,2.375-1.57,4.618-1.537-6.211Zm2.609,9.737,4.037.6,5.261.792-1.7,8.5-.3-.4Zm9.842,1.389L281.4,157.4l-6.31,9.324-.346-1.019Zm8.539.073.7-1.029-.049,2.507-.106,5.136-1.319.307-4.637,1.085Zm.877,11.452.089-4.5,2.827-.838.448-.132-3.5,12.141Zm-10.3-24.134-6.775-2.457,1.273-5.04Zm-12,1.55,1.049,4.232,1.125,4.572-6.138-5.066Zm.2,14.806,2.137,2.085.841,8.17-.94.564-.759-4.021Zm2.945,10.776-.214,1.916-.125,1.108-.482-2.543Zm3.819,4.947L262.4,164.9l5.053,2.019L270,167.941Zm-4.205-13.879v-6.636l7.349,9.565Zm16.716,2.124,2.477-.581-.082,4.433-.148,7.458-5.871-10.466Zm-.858-19.948.373-2.863.617-4.763,7.916,3.47Zm-5.416-5.607-.745,5.126-5.132-6.989-.33-.445,2.573.957Zm-15.832.35,2.494,5.967-2.942,2.767-.91.858Zm4.895,15.862-2.372,4.238-3.671-9.235Zm-.33,16.864.482,2.55-1.217-2.118Zm2.969,4.568,1.867.531.218,4.149.073,1.362-3.727-6.488Zm2.309.482.762-.478.564-.353-1.079,5.525Zm1.438-1.415-1.26.792,2.586-7.57Zm6.425-10.179-1.959,2.576-1.916-2.081Zm4.585,9.9,2.035,1.319-2.075,6.534Zm6.323-13.4-3.361-6.778,3.958-2.639,3.562-2.368Zm1.544-10.555-4.694,3.124,5.221-13.467,2.309,8.464Zm-13.5-16.937,4.826,2.114-5.413,1.979-1.8-.66-4.512-1.679Zm-8.645,4.822-.614,2.431-4.558,3.252-.99-2.4-1.649-3.958,8.536-2.157Zm-4.948,24.738,1.418,7.527-.759.449Zm10.621,2.391.6.66,1.267,1.375-.914,6.722Zm1.253,9.542.917-6.735,1.257,3.2Zm2.309-4.41-1.234-3.143,1.834-2.457Zm5.851,2.909.828,1.474-1.468-.963-.244-.162-2.658-6.659Zm-.33,8.553,1.936-6.2,1.867-.066Zm4-6.709-1.679.059h-.257l3.252-11.28Z" transform="translate(-254.996 -136.133)" fill="#5d5d5d"/>
</svg>
