<svg xmlns="http://www.w3.org/2000/svg" width="47.997" height="48.022" viewBox="0 0 47.997 48.022">
  <g id="Grupo_2661" data-name="Grupo 2661" transform="translate(-885.001 -558.992)">
    <g id="Grupo_2545" data-name="Grupo 2545" transform="translate(-21.015 -36.008)">
      <g id="noun_premium_2256496" transform="translate(906.016 595)">
        <g id="Grupo_2544" data-name="Grupo 2544" transform="translate(0 0)">
          <path id="Trazado_757" data-name="Trazado 757" d="M34.919,10.995a.616.616,0,0,0-.327.154l-5.868,5.406-8.08-1.1a.616.616,0,0,0-.693.5l-1.4,7.618-7.195,3.636a.616.616,0,0,0-.269.827L14.661,35l-3.578,6.945a.616.616,0,0,0,.269.827l7.195,3.636,1.4,7.618a.616.616,0,0,0,.693.5l8.08-1.1,5.868,5.406a.616.616,0,0,0,.846,0l5.868-5.406,8.08,1.1a.616.616,0,0,0,.693-.5l1.4-7.618,7.195-3.636a.616.616,0,0,0,.269-.827L55.369,35l3.578-6.964a.616.616,0,0,0-.269-.827l-7.195-3.636-1.4-7.618a.616.616,0,0,0-.693-.5l-8.08,1.1-5.868-5.406A.616.616,0,0,0,34.919,10.995Zm.1,1.443,5.656,5.213a.616.616,0,0,0,.5.154l7.811-1.039,1.347,7.349a.616.616,0,0,0,.327.423l6.926,3.5-3.444,6.676a.616.616,0,0,0,0,.558l3.444,6.676-6.926,3.5a.616.616,0,0,0-.327.423l-1.347,7.368-7.811-1.058a.616.616,0,0,0-.5.154L35.015,57.55l-5.656-5.213a.616.616,0,0,0-.5-.154l-7.811,1.058L19.7,45.873a.616.616,0,0,0-.327-.423l-6.926-3.5,3.444-6.676a.616.616,0,0,0,0-.558l-3.444-6.676,6.926-3.5a.616.616,0,0,0,.327-.423l1.347-7.349L28.859,17.8a.616.616,0,0,0,.5-.154Zm.019,9.234A13.351,13.351,0,1,0,48.4,35.023,13.369,13.369,0,0,0,35.034,21.672Zm0,1.212A12.12,12.12,0,1,1,22.857,35.023,12.119,12.119,0,0,1,35.034,22.884ZM35.015,26.4a.616.616,0,0,0-.481.231l-3.1,3.848L26.57,32.1a.616.616,0,0,0-.289.943l2.886,4,.135,4.829a.616.616,0,0,0,.789.577l4.925-1.385,4.925,1.385a.616.616,0,0,0,.789-.577l.135-4.829,2.886-3.982a.616.616,0,0,0-.289-.962l-4.867-1.616-3.1-3.848A.616.616,0,0,0,35.015,26.4Zm0,1.6,2.751,3.405a.616.616,0,0,0,.289.192L42.268,33l-2.52,3.463a.616.616,0,0,0-.115.346l-.115,4.232-4.329-1.212a.616.616,0,0,0-.346,0l-4.329,1.212L30.4,36.812a.616.616,0,0,0-.115-.346L27.762,33l4.213-1.4a.616.616,0,0,0,.289-.192Z" transform="translate(-11.016 -10.986)" fill="#69abbe"/>
        </g>
      </g>
      <circle id="Elipse_109" data-name="Elipse 109" cx="12.746" cy="12.746" r="12.746" transform="translate(917.253 606.006)" fill="#69abbe" opacity="0.4"/>
    </g>
  </g>
</svg>
