<svg xmlns="http://www.w3.org/2000/svg" xmlns:xlink="http://www.w3.org/1999/xlink" width="58" height="58" viewBox="0 0 58 58">
  <defs>
    <clipPath id="clip-path">
      <rect width="58" height="58" fill="none"/>
    </clipPath>
    <filter id="Elipse_113" x="0" y="0" width="58" height="58" filterUnits="userSpaceOnUse">
      <feOffset dy="3" input="SourceAlpha"/>
      <feGaussianBlur stdDeviation="3" result="blur"/>
      <feFlood flood-opacity="0.161"/>
      <feComposite operator="in" in2="blur"/>
      <feComposite in="SourceGraphic"/>
    </filter>
  </defs>
  <g id="Componente_16_1" data-name="Componente 16 – 1" clip-path="url(#clip-path)">
    <g transform="matrix(1, 0, 0, 1, 0, 0)" filter="url(#Elipse_113)">
      <circle id="Elipse_113-2" data-name="Elipse 113" cx="20" cy="20" r="20" transform="translate(9 6)" fill="#04e597"/>
    </g>
    <g id="Grupo_2638" data-name="Grupo 2638" transform="translate(2425.005 312.005)">
      <path id="Trazado_763" data-name="Trazado 763" d="M598.955,3045.962,596.9,3051.6l6.772-1.892,1.381.674,9.86-20.92-4.286-.666h-3.642l-5.936,2.932-3.233,4.143-.584,5.558Z" transform="translate(-3004.497 -3325.904)" fill="#fff" opacity="0.4"/>
      <path id="WhatsApp" d="M25.37,12.359A12.475,12.475,0,0,1,6.9,23.179L0,25.37,2.248,18.74A12.228,12.228,0,0,1,.461,12.359a12.455,12.455,0,0,1,24.91,0ZM12.916,1.968A10.443,10.443,0,0,0,2.445,12.359,10.281,10.281,0,0,0,4.439,18.45L3.131,22.309,7.155,21.03a10.482,10.482,0,0,0,16.232-8.671A10.443,10.443,0,0,0,12.916,1.968ZM19.205,15.2c-.077-.126-.28-.2-.585-.353s-1.807-.885-2.086-.985-.484-.152-.687.151S15.058,15,14.88,15.2s-.356.228-.662.076a8.356,8.356,0,0,1-2.455-1.5,9.133,9.133,0,0,1-1.7-2.1c-.178-.3-.019-.467.134-.618s.306-.354.458-.531a2.03,2.03,0,0,0,.305-.505.552.552,0,0,0-.025-.531c-.076-.151-.687-1.642-.942-2.249s-.508-.505-.687-.505-.382-.025-.585-.025a1.127,1.127,0,0,0-.814.379A3.387,3.387,0,0,0,6.841,9.622a5.861,5.861,0,0,0,1.247,3.133A12.48,12.48,0,0,0,13.3,17.328c3.1,1.212,3.1.808,3.664.757a3.088,3.088,0,0,0,2.061-1.44A2.525,2.525,0,0,0,19.205,15.2Z" transform="translate(-2409 -298.329)" fill="#fff"/>
    </g>
  </g>
</svg>
