<svg xmlns="http://www.w3.org/2000/svg" width="23.38" height="23.38" viewBox="0 0 23.38 23.38">
  <g id="Grupo_2696" data-name="Grupo 2696" transform="translate(-113 -2038.671)">
    <path id="Trazado_763" data-name="Trazado 763" d="M598.794,3044.615l-1.894,5.2,6.241-1.744,1.273.621,9.087-19.278-3.949-.614h-3.357l-5.47,2.7-2.979,3.818-.539,5.122Z" transform="translate(-482.607 -989)" fill="#69abbe" opacity="0.4"/>
    <path id="WhatsApp" d="M23.38,11.389A11.5,11.5,0,0,1,6.354,21.36L0,23.38l2.072-6.11A11.269,11.269,0,0,1,.425,11.389a11.478,11.478,0,0,1,22.955,0ZM11.9,1.814a9.623,9.623,0,0,0-9.65,9.575A9.474,9.474,0,0,0,4.091,17L2.885,20.559,6.594,19.38a9.659,9.659,0,0,0,14.959-7.991A9.624,9.624,0,0,0,11.9,1.814Zm5.8,12.2c-.071-.116-.258-.186-.539-.326s-1.665-.815-1.922-.908-.446-.14-.633.139-.727.908-.891,1.094-.328.21-.61.07A7.7,7.7,0,0,1,10.84,12.7a8.416,8.416,0,0,1-1.565-1.933c-.164-.279-.017-.43.123-.569s.282-.326.422-.489A1.871,1.871,0,0,0,10.1,9.24a.509.509,0,0,0-.023-.489c-.07-.139-.633-1.513-.868-2.072s-.468-.466-.633-.466-.352-.023-.539-.023a1.038,1.038,0,0,0-.75.349A3.122,3.122,0,0,0,6.3,8.867a5.4,5.4,0,0,0,1.149,2.887,11.5,11.5,0,0,0,4.806,4.214c2.86,1.117,2.86.745,3.376.7a2.846,2.846,0,0,0,1.9-1.327A2.327,2.327,0,0,0,17.7,14.012Z" transform="translate(113 2038.671)" fill="#69abbe"/>
  </g>
</svg>
