<svg xmlns="http://www.w3.org/2000/svg" width="19.248" height="19.248" viewBox="0 0 19.248 19.248">
  <g id="Grupo_2531" data-name="Grupo 2531" transform="translate(0)">
    <g id="Grupo_2530" data-name="Grupo 2530">
      <path id="Trazado_747" data-name="Trazado 747" d="M18.436,4H8.812A4.826,4.826,0,0,0,4,8.812v9.624a4.826,4.826,0,0,0,4.812,4.812h9.624a4.826,4.826,0,0,0,4.812-4.812V8.812A4.826,4.826,0,0,0,18.436,4Zm3.937,14.436a3.949,3.949,0,0,1-3.937,3.937H8.812a3.949,3.949,0,0,1-3.937-3.937V8.812A3.949,3.949,0,0,1,8.812,4.875h9.624a3.949,3.949,0,0,1,3.937,3.937Z" transform="translate(-4 -4)" fill="#717171"/>
      <path id="Trazado_748" data-name="Trazado 748" d="M30.812,26a4.812,4.812,0,1,0,4.812,4.812A4.826,4.826,0,0,0,30.812,26Zm0,8.749a3.937,3.937,0,1,1,3.937-3.937A3.949,3.949,0,0,1,30.812,34.749Z" transform="translate(-21.188 -21.188)" fill="#717171"/>
      <path id="Trazado_749" data-name="Trazado 749" d="M68.531,15a1.531,1.531,0,1,0,1.531,1.531A1.522,1.522,0,0,0,68.531,15Zm0,2.187a.656.656,0,1,1,.656-.656A.644.644,0,0,1,68.531,17.187Z" transform="translate(-53.22 -12.594)" fill="#717171"/>
    </g>
  </g>
</svg>
