<svg xmlns="http://www.w3.org/2000/svg" width="92.443" height="16.939" viewBox="0 0 92.443 16.939">
  <g id="Grupo_2538" data-name="Grupo 2538" transform="translate(0 0)">
    <g id="Grupo_2536" data-name="Grupo 2536" transform="translate(0)">
      <path id="Trazado_705" data-name="Trazado 705" d="M209.117,402.737a2.5,2.5,0,0,1-.507-1.664,12.8,12.8,0,0,1,1.015-4.243,26.2,26.2,0,0,1,2.3-4.717c.832-1.381,1.539-2.063,2.03-2.063a.541.541,0,0,1,.5.349,1.954,1.954,0,0,1,.191.832,5.716,5.716,0,0,1-.557,2.122,11.712,11.712,0,0,1-1.448,2.5,6.566,6.566,0,0,1-1.9,1.772,6.854,6.854,0,0,0-.5,1.439,7.613,7.613,0,0,0-.258,1.93,2.83,2.83,0,0,0,.208,1.19.707.707,0,0,0,.666.441,1.531,1.531,0,0,0,.94-.391,3.11,3.11,0,0,0,.832-.99,2.354,2.354,0,0,1-.94-.932,2.671,2.671,0,0,1-.324-1.29,1.963,1.963,0,0,1,.433-1.323,1.364,1.364,0,0,1,1.1-.516,1.1,1.1,0,0,1,.907.424,2.022,2.022,0,0,1,.333,1.256,5.124,5.124,0,0,1-.5,2.13h.3a1.664,1.664,0,0,0,1.281-.541,5.537,5.537,0,0,0,.89-1.331l.25.349a3.985,3.985,0,0,1-1.065,1.547,2.4,2.4,0,0,1-1.572.5h-.358a4.577,4.577,0,0,1-1.223,1.323,2.678,2.678,0,0,1-1.581.491A1.8,1.8,0,0,1,209.117,402.737Zm3.278-7.82a14.46,14.46,0,0,0,1.048-1.938,4.4,4.4,0,0,0,.416-1.339,2.888,2.888,0,0,0-.757.832A15.551,15.551,0,0,0,212,394.335a15.06,15.06,0,0,0-.932,2.2A7.571,7.571,0,0,0,212.394,394.917Zm.832,4.326a2.179,2.179,0,0,0-.133-.874c-.092-.208-.208-.308-.349-.308s-.275.1-.383.308a1.5,1.5,0,0,0-.158.724,2.361,2.361,0,0,0,.175.832,1.531,1.531,0,0,0,.549.716,3.528,3.528,0,0,0,.291-1.4Z" transform="translate(-208.605 -389.892)" fill="#717171"/>
      <path id="Trazado_706" data-name="Trazado 706" d="M219.061,407.922a1.023,1.023,0,0,1-.341-.832,1.748,1.748,0,0,1,.5-1.2,4.895,4.895,0,0,1,1.148-.907,17.425,17.425,0,0,1,1.705-.832c.191-.491.457-1.364.832-2.637a7.372,7.372,0,0,1-1.19,1.356,1.879,1.879,0,0,1-1.231.482,1.588,1.588,0,0,1-1-.333,1.265,1.265,0,0,1-.433-1.065,5.073,5.073,0,0,1,.266-1.456,8.173,8.173,0,0,1,.641-1.556c.241-.441.458-.666.641-.666a1.18,1.18,0,0,1,.5.183.831.831,0,0,1,.408.374,6.118,6.118,0,0,0-.7,1.472,5.133,5.133,0,0,0-.383,1.614c0,.416.166.624.491.624a1.664,1.664,0,0,0,1.1-.591,8.089,8.089,0,0,0,1.123-1.447,4.868,4.868,0,0,0,.1-.558,1.664,1.664,0,0,1,.308-.765.749.749,0,0,1,.666-.333l.541.066a10.97,10.97,0,0,1-.391,1.839c-.258.948-.549,1.872-.89,2.77a5.065,5.065,0,0,0,1.556-1.032,4.668,4.668,0,0,0,1.156-1.822l.283.241a4.309,4.309,0,0,1-1.215,1.955,7.79,7.79,0,0,1-2,1.3,14.142,14.142,0,0,1-1.606,2.953,2.262,2.262,0,0,1-1.755,1.09A1.23,1.23,0,0,1,219.061,407.922Zm1.564-1.065a8.993,8.993,0,0,0,1.123-1.98,8.5,8.5,0,0,0-1.664,1.073,1.664,1.664,0,0,0-.7,1.148.722.722,0,0,0,.075.333.266.266,0,0,0,.25.141c.225,0,.532-.241.907-.715Z" transform="translate(-210.304 -391.275)" fill="#717171"/>
      <path id="Trazado_707" data-name="Trazado 707" d="M238.774,402.954a3.485,3.485,0,0,1-1.215-1.531,5.215,5.215,0,0,1-.4-2.047A9.984,9.984,0,0,1,238.233,395a10.989,10.989,0,0,1,2.729-3.619,5.183,5.183,0,0,1,3.328-1.423,1.988,1.988,0,0,1,1.265.366,1.364,1.364,0,0,1,.482,1.165,4.7,4.7,0,0,1-.316,1.548,4.991,4.991,0,0,1-.79,1.5,1.3,1.3,0,0,1-.965.616.832.832,0,0,1-.69-.524,11.4,11.4,0,0,0,1.24-1.664,3.328,3.328,0,0,0,.6-1.581c0-.441-.258-.657-.757-.657a3.611,3.611,0,0,0-2.5,1.431,12.121,12.121,0,0,0-2.2,3.519,10.034,10.034,0,0,0-.89,3.885,4.092,4.092,0,0,0,.607,2.271,2.055,2.055,0,0,0,1.839.932,3.687,3.687,0,0,0,1.78-.5,6.55,6.55,0,0,0,1.664-1.323,7.237,7.237,0,0,0,1.215-1.789l.433.283a9.385,9.385,0,0,1-2.379,2.978,4.825,4.825,0,0,1-3.12,1.156A3.468,3.468,0,0,1,238.774,402.954Z" transform="translate(-213.403 -389.876)" fill="#717171"/>
      <path id="Trazado_708" data-name="Trazado 708" d="M249.061,403.753a1.489,1.489,0,0,1-.391-1.1,4.352,4.352,0,0,1,.716-2.188,6.964,6.964,0,0,1,1.822-2.055,3.654,3.654,0,0,1,2.221-.832,2.02,2.02,0,0,1,1.24.383,1.173,1.173,0,0,1,.491.973c0,.516-.316.782-.957.832.408.125.607.291.607.507a.974.974,0,0,1-.117.349c-.083.158-.175.324-.274.491a8.371,8.371,0,0,0-.416.766,1.512,1.512,0,0,0-.15.616.74.74,0,0,0,.125.433.433.433,0,0,0,.374.175,2.055,2.055,0,0,0,1.206-.657,7.365,7.365,0,0,0,1.423-1.972l.316.316a6.654,6.654,0,0,1-1.547,2.255,2.778,2.778,0,0,1-1.864.832,1.281,1.281,0,0,1-1.04-.441,1.581,1.581,0,0,1-.358-1.023,9.5,9.5,0,0,1-1.3,1.331,1.813,1.813,0,0,1-1.14.424A1.364,1.364,0,0,1,249.061,403.753Zm2.712-1.323a25.829,25.829,0,0,0,1.772-2.213l.341-.457a.142.142,0,0,1,.133-.083h.067a2.064,2.064,0,0,0,.083-.624c0-.582-.233-.882-.707-.882a2.3,2.3,0,0,0-1.547.832,6.882,6.882,0,0,0-1.356,1.888,4.3,4.3,0,0,0-.541,1.872.657.657,0,0,0,.092.408.332.332,0,0,0,.291.125,2.112,2.112,0,0,0,1.373-.857Z" transform="translate(-215.337 -391.157)" fill="#717171"/>
      <path id="Trazado_709" data-name="Trazado 709" d="M262.29,403.235a1.115,1.115,0,0,1-.391-.89,2.332,2.332,0,0,1,.133-.7,9,9,0,0,1,.374-.915,7.419,7.419,0,0,0,.341-.832,1.892,1.892,0,0,0,.117-.582c0-.433-.283-.79-.832-1.081-.225.557-.491,1.131-.782,1.705a13.3,13.3,0,0,1-.832,1.448l-.258-.491a19.444,19.444,0,0,0,1.364-3.053.608.608,0,0,1-.166-.449,1.472,1.472,0,0,1,.266-.832c.183-.258.358-.383.524-.383a.324.324,0,0,1,.274.2.728.728,0,0,1,.108.341,1.3,1.3,0,0,1-.075.291l-.108.333a.408.408,0,0,0,.133.225,3.273,3.273,0,0,0,.441.308,4.743,4.743,0,0,1,.915.757,1.38,1.38,0,0,1,.325.965,2.273,2.273,0,0,1-.125.741,8.149,8.149,0,0,1-.374.9,2.849,2.849,0,0,0-.374,1.057c0,.258.142.391.424.391a1.981,1.981,0,0,0,1.1-.408,5.545,5.545,0,0,0,1.1-.982,4.892,4.892,0,0,0,.732-1.09l.4.308a5.823,5.823,0,0,1-2.3,2.579,2.9,2.9,0,0,1-1.472.432A1.505,1.505,0,0,1,262.29,403.235Z" transform="translate(-217.269 -390.922)" fill="#717171"/>
      <path id="Trazado_710" data-name="Trazado 710" d="M269.931,402.091a2.279,2.279,0,0,1-.341-1.3,11.907,11.907,0,0,1,1.057-4.16,28.572,28.572,0,0,1,2.363-4.651c.874-1.373,1.522-2.063,1.93-2.063.191,0,.358.15.491.449a2.373,2.373,0,0,1,.216.907,6.654,6.654,0,0,1-.616,2.263,16.5,16.5,0,0,1-1.664,3.028,11.125,11.125,0,0,1-2.246,2.5,10.751,10.751,0,0,0-.183,1.581,1.665,1.665,0,0,0,.191.882.607.607,0,0,0,.533.283,1.781,1.781,0,0,0,1.256-.782,8.383,8.383,0,0,0,1.173-1.889l.408.216a8.2,8.2,0,0,1-1.664,2.388,2.7,2.7,0,0,1-1.855.832A1.206,1.206,0,0,1,269.931,402.091Zm3.186-6.373a18.808,18.808,0,0,0,1.281-2.5,5.365,5.365,0,0,0,.474-1.755c-.141,0-.441.341-.882,1.032a23.38,23.38,0,0,0-1.4,2.554,22.753,22.753,0,0,0-1.181,2.954A14,14,0,0,0,273.117,395.719Z" transform="translate(-218.853 -389.87)" fill="#717171"/>
      <path id="Trazado_711" data-name="Trazado 711" d="M276.6,403.412a1.964,1.964,0,0,1-.308-1.132,4.092,4.092,0,0,1,.291-1.464,3.861,3.861,0,0,1,.765-1.265,1.323,1.323,0,0,1,.957-.507,1.372,1.372,0,0,1,.524.133,2.338,2.338,0,0,1,.549-1.281,1.556,1.556,0,0,1,1.248-.507,1.231,1.231,0,0,1,1,.383,1.5,1.5,0,0,1,.316.982,3.541,3.541,0,0,1-.308,1.348,9.586,9.586,0,0,1-.832,1.523,1.042,1.042,0,0,0,.466.1,2.08,2.08,0,0,0,1.839-1.265l.3.216a2.786,2.786,0,0,1-.948,1.231,2.122,2.122,0,0,1-1.24.424,2.717,2.717,0,0,1-.832-.15,6.02,6.02,0,0,1-1.364,1.215,2.721,2.721,0,0,1-1.448.466A1.131,1.131,0,0,1,276.6,403.412Zm2.346-.74a5.681,5.681,0,0,0,.832-.832,3.327,3.327,0,0,1-1.007-2.5,1.557,1.557,0,0,0-.491.624,6.441,6.441,0,0,0-.483,1.165,3.853,3.853,0,0,0-.208,1.115q0,.774.574.774A1.313,1.313,0,0,0,278.944,402.672Zm2.013-2.7a3.233,3.233,0,0,0,.274-1.215c0-.491-.158-.74-.466-.74a.682.682,0,0,0-.457.224,1.667,1.667,0,0,0-.391.574,2.147,2.147,0,0,0-.15.832,3.732,3.732,0,0,0,.133.882,1.988,1.988,0,0,0,.358.765A6.989,6.989,0,0,0,280.957,399.968Z" transform="translate(-219.979 -391.125)" fill="#717171"/>
      <path id="Trazado_712" data-name="Trazado 712" d="M286.234,403.358a2.445,2.445,0,0,1-.566-1.664,1.373,1.373,0,0,1,.233-.915,1.665,1.665,0,0,1,.533-.4,1.909,1.909,0,0,0,.341-.133,8.235,8.235,0,0,0,1.664-2.313v-.183a1.607,1.607,0,0,1,.216-.924.624.624,0,0,1,.541-.308.358.358,0,0,1,.408.341,1.381,1.381,0,0,1-.042.25,1.664,1.664,0,0,0-.042.358,2.547,2.547,0,0,0,.1.674c.067.233.175.557.316.957s.324.923.416,1.281a4.417,4.417,0,0,1,.141,1.1,4.65,4.65,0,0,1-.066.691,3.328,3.328,0,0,0,1.988-1.905l.2.15a4.044,4.044,0,0,1-.932,1.556,2.5,2.5,0,0,1-1.406.707,1.98,1.98,0,0,1-.874,1.015,2.768,2.768,0,0,1-1.4.349A2.121,2.121,0,0,1,286.234,403.358Zm2.255-.233a1.081,1.081,0,0,0,.441-.483,3.377,3.377,0,0,1-1.206-.516,3.752,3.752,0,0,1-.9-.832c-.15,0-.233.183-.233.449a1.773,1.773,0,0,0,.341,1.073,1.082,1.082,0,0,0,.924.466A1.231,1.231,0,0,0,288.489,403.125Zm.624-1.514a6.523,6.523,0,0,0-.116-1.065q-.1-.516-.3-1.348l-.15-.607a11.649,11.649,0,0,1-1.464,2.113,3.08,3.08,0,0,0,.832.882,3.047,3.047,0,0,0,1.173.549A1.874,1.874,0,0,0,289.113,401.611Z" transform="translate(-221.554 -390.979)" fill="#717171"/>
      <path id="Trazado_713" data-name="Trazado 713" d="M302.465,402.456a5.169,5.169,0,0,1,.674-1.98,33.81,33.81,0,0,1,1.8-3.078c-.666-.042-1.5-.067-2.5-.067a1.839,1.839,0,0,1,1.955-1.1,11.66,11.66,0,0,1,1.24.108,51.64,51.64,0,0,1,3.519-4.609q1.664-1.872,2.171-1.872a1.98,1.98,0,0,1,1.14.657,6.236,6.236,0,0,0-.982,2.1,36.88,36.88,0,0,0-1.148,4.043,17.351,17.351,0,0,0-.491,3.552,2.7,2.7,0,0,0,.141,1,.466.466,0,0,0,.449.333,1.564,1.564,0,0,0,.99-.616,8.853,8.853,0,0,0,1.248-1.9l.3.316a6.532,6.532,0,0,1-1.381,2.3,2.413,2.413,0,0,1-1.747.832,1.2,1.2,0,0,1-1.131-.674,4.291,4.291,0,0,1-.35-1.938,13.14,13.14,0,0,1,.216-2.088c-.574-.092-1.373-.2-2.4-.324a66.2,66.2,0,0,0-2.962,6.007A1.2,1.2,0,0,1,302.465,402.456Zm7.1-8.369c.333-1.015.657-1.914,1-2.712a9.983,9.983,0,0,0-1.739,1.955,38.284,38.284,0,0,0-2.08,3.236l1.256.266c.341.092.6.158.774.191C308.979,396.075,309.237,395.1,309.562,394.086Z" transform="translate(-224.374 -389.86)" fill="#717171"/>
      <path id="Trazado_714" data-name="Trazado 714" d="M317.963,404.228a.632.632,0,0,1-.183-.449.832.832,0,0,1,.358-.591,1.132,1.132,0,0,1,.7-.308.6.6,0,0,1,.391.133.466.466,0,0,1,.166.391,1.02,1.02,0,0,1-.108.4,1.42,1.42,0,0,1-.308.433.666.666,0,0,1-.458.183A.758.758,0,0,1,317.963,404.228Z" transform="translate(-226.952 -392.048)" fill="#717171"/>
    </g>
  </g>
</svg>
