<svg xmlns="http://www.w3.org/2000/svg" width="20.782" height="15.538" viewBox="0 0 20.782 15.538">
  <g id="Grupo_2663" data-name="Grupo 2663" transform="translate(-20 -30)">
    <g id="Grupo_173" data-name="Grupo 173" transform="translate(20 30)">
      <path id="Trazado_246" data-name="Trazado 246" d="M20,30.777A.738.738,0,0,1,20.691,30h19.4a.782.782,0,0,1,0,1.554h-19.4A.736.736,0,0,1,20,30.777Zm0,6.992a.738.738,0,0,1,.691-.777h19.4a.782.782,0,0,1,0,1.554h-19.4A.736.736,0,0,1,20,37.769Zm0,6.992a.738.738,0,0,1,.691-.777h19.4a.782.782,0,0,1,0,1.554h-19.4A.736.736,0,0,1,20,44.761Z" transform="translate(-20 -30)" fill="#ada162" fill-rule="evenodd"/>
    </g>
  </g>
</svg>
